<svg width="102" height="48" viewBox="0 0 102 48" fill="none" xmlns="http://www.w3.org/2000/svg">
<path d="M21.0058 28.3549C20.5951 27.23 20.0548 26.2831 19.3845 25.5142C18.7143 24.7456 17.9534 24.1061 17.1021 23.5962C16.2506 23.0863 15.384 22.605 14.5025 22.1514C13.5361 21.6659 12.6514 21.2007 11.8485 20.7554C11.0452 20.3104 10.3567 19.8005 9.78326 19.2258C9.20963 18.6515 8.76557 17.9675 8.45174 17.1741C8.13748 16.3811 7.98078 15.3858 7.98078 14.1878C7.98078 13.1843 8.0925 12.2817 8.31592 11.4806C8.53935 10.6792 8.87449 9.99949 9.32134 9.44114C9.76798 8.88257 10.3298 8.45402 11.0061 8.15418C11.6824 7.85477 12.4794 7.70496 13.3972 7.70496C14.0856 7.70496 14.7589 7.82248 15.4173 8.0571C16.0756 8.29194 16.6733 8.72092 17.2108 9.34406C17.748 9.96741 18.2039 10.8293 18.5785 11.9298C18.9525 13.0308 19.1943 14.4549 19.303 16.2031H20.5712L20.3538 7.38962C19.8465 7.14682 19.309 6.92447 18.7414 6.72193C18.1736 6.51981 17.5971 6.34568 17.0115 6.19995C16.4253 6.05423 15.8366 5.94489 15.2451 5.87213C14.6532 5.79938 14.0796 5.76279 13.5242 5.76279C12.123 5.76279 10.8944 6.00559 9.83772 6.49118C8.78064 6.97678 7.89598 7.66083 7.18373 8.5427C6.47083 9.42521 5.93357 10.4892 5.57153 11.7355C5.20905 12.9822 5.02803 14.3578 5.02803 15.863C5.02803 17.4655 5.21831 18.805 5.59865 19.8812C5.97921 20.9579 6.49537 21.8684 7.14756 22.6127C7.79955 23.3573 8.5514 23.9806 9.40292 24.4824C10.2544 24.9843 11.1512 25.4617 12.0931 25.9148C13.0352 26.3681 13.8986 26.8053 14.6836 27.2259C15.4533 27.6385 16.1139 28.1263 16.6688 28.6863H21.116C21.0805 28.5742 21.0447 28.462 21.0058 28.3549Z" fill="#064F94"/>
<path d="M17.1561 38.9166C16.6912 39.5236 16.0993 39.9971 15.3808 40.337C14.6621 40.6769 13.7959 40.8469 12.7812 40.8469C11.9357 40.8469 11.1355 40.6973 10.381 40.3977C9.62615 40.0983 8.95587 39.5843 8.37019 38.8559C7.9384 38.3191 7.55828 37.6451 7.22831 36.8362H4.96413L5.06422 40.9197C5.59544 41.195 6.16929 41.4378 6.78511 41.6481C7.40093 41.8586 8.03204 42.0446 8.67821 42.2064C9.32416 42.3681 9.97614 42.4895 10.6348 42.5706C11.293 42.6513 11.9302 42.692 12.546 42.692C13.9589 42.692 15.2271 42.4651 16.3502 42.0123C17.4736 41.5594 18.4246 40.9037 19.2035 40.0456C19.9825 39.1878 20.5803 38.1275 20.997 36.8651C21.0002 36.8556 21.0026 36.8457 21.0058 36.8362H18.14C17.9269 37.6397 17.601 38.3354 17.1561 38.9166Z" fill="#064F94"/>
<path d="M29.8102 24.4339C29.8102 22.168 29.9039 20.1811 30.0911 18.4733C30.2782 16.7658 30.541 15.289 30.8792 14.0423C31.2171 12.796 31.631 11.7684 32.1201 10.9589C32.6091 10.1497 33.1586 9.50207 33.7686 9.01648C34.3784 8.53088 35.0394 8.191 35.7523 7.99685C36.4648 7.80248 37.2197 7.70541 38.017 7.70541C38.8017 7.70541 39.5446 7.81884 40.2452 8.0455C40.9456 8.27237 41.5737 8.69296 42.1292 9.30792C42.6846 9.92331 43.1467 10.7852 43.515 11.8937C43.8833 13.0026 44.1218 14.4392 44.2305 16.2033H45.4987L45.2813 7.34121C44.7258 7.09841 44.1491 6.87994 43.5514 6.68579C42.9534 6.49163 42.3494 6.32568 41.7396 6.18792C41.1296 6.05059 40.5289 5.94512 39.9372 5.87237C39.3452 5.79961 38.7839 5.76302 38.2524 5.76302C36.3684 5.76302 34.6623 6.20428 33.1349 7.08636C31.6069 7.96865 30.3055 9.23129 29.2308 10.8738C28.1559 12.5168 27.3287 14.4958 26.749 16.8103C26.1696 19.1251 25.8796 21.7147 25.8796 24.5799C25.8796 26.0248 25.9541 27.3927 26.1005 28.6868H29.9418C29.8546 27.4052 29.8102 25.99 29.8102 24.4339Z" fill="#064F94"/>
<path d="M42.3554 38.8316C41.7576 39.544 41.0693 40.0417 40.2903 40.3248C39.5113 40.608 38.6626 40.7496 37.745 40.7496C36.9841 40.7496 36.2596 40.661 35.571 40.4825C34.8826 40.3045 34.2455 39.9849 33.6598 39.5234C33.0737 39.0621 32.5427 38.4392 32.0657 37.6538C31.9137 37.4036 31.77 37.1294 31.6326 36.836H28.4849C28.6732 37.1776 28.8686 37.5095 29.0766 37.8238C30.1091 39.3861 31.3651 40.5878 32.8447 41.4292C34.3239 42.2706 35.9877 42.6916 37.8356 42.6916C38.4153 42.6916 39.0403 42.6511 39.7106 42.5702C40.3809 42.4891 41.0602 42.372 41.7486 42.2183C42.4369 42.0642 43.1163 41.8784 43.7867 41.6597C44.457 41.4412 45.0821 41.1946 45.6618 40.9193L45.7694 36.8358H43.5142C43.1841 37.6387 42.7981 38.3044 42.3554 38.8316Z" fill="#064F94"/>
<path d="M56.7845 24.5794H59.1576C60.0272 24.5794 60.7364 24.6363 61.2862 24.7495C61.8357 24.8629 62.2735 25.138 62.5996 25.575C62.9259 26.0119 63.1612 26.6555 63.3063 27.5053C63.3646 27.8475 63.4158 28.243 63.4604 28.6864H64.9004V16.6158H63.6141C63.5415 18.0725 63.4208 19.2015 63.2516 20.0027C63.0824 20.8038 62.8319 21.3949 62.4997 21.775C62.1676 22.1556 61.73 22.3861 61.1863 22.467C60.643 22.5482 59.9663 22.5884 59.1574 22.5884H56.7843V8.53045H62.5271C63.6982 8.53045 64.6675 8.63183 65.4346 8.83394C66.2015 9.03649 66.8232 9.42501 67.3006 9.9995C67.7776 10.5742 68.1487 11.3674 68.4147 12.3788C68.6801 13.3907 68.9037 14.7059 69.085 16.3243H70.353L69.9907 6.58828H49.6286V8.53066H53.2517V28.6864H56.7843V24.5794H56.7845Z" fill="#064F94"/>
<path d="M67.3004 38.1518C66.9198 38.6215 66.4639 38.9857 65.9327 39.2444C65.401 39.5036 64.7794 39.6814 64.0667 39.7784C63.3538 39.8755 62.5271 39.9242 61.5849 39.9242H56.7843V36.8362H53.2517V39.9242H49.6286V41.8665H70.4434L70.5947 36.8362H68.0813C67.8508 37.3548 67.5907 37.7936 67.3004 38.1518Z" fill="#064F94"/>
<path d="M81.5846 25.3078H83.9576C84.8272 25.3078 85.5365 25.3647 86.0862 25.4779C86.6357 25.5913 87.0736 25.8705 87.3997 26.3156C87.726 26.761 87.9612 27.4166 88.1063 28.2823C88.1276 28.4095 88.1476 28.5456 88.167 28.6866H89.7004V17.223H88.4141C88.3416 18.7122 88.2208 19.8655 88.0516 20.6828C87.8825 21.5003 87.6319 22.1032 87.2998 22.4918C86.9677 22.8803 86.5301 23.1151 85.9863 23.1958C85.4431 23.277 84.7663 23.3172 83.9574 23.3172H81.5843V8.53108H87.1459C88.317 8.53108 89.2925 8.63655 90.0715 8.84663C90.8505 9.05715 91.4846 9.46202 91.9737 10.0606C92.4627 10.6597 92.84 11.4972 93.1061 12.5734C93.3715 13.6501 93.583 15.0621 93.74 16.8103H95.0082L94.6096 6.5887H74.4287V8.53108H78.0517V28.6868H81.5843L81.5846 25.3078Z" fill="#064F94"/>
<path d="M78.0521 36.8362V39.9242H74.4291V41.8665H85.389V39.9242H81.5847V36.8362H78.0521Z" fill="#064F94"/>
<path d="M26.0999 28.6863H21.1159C21.4519 29.751 21.6217 31.0351 21.6217 32.5431C21.6217 34.1497 21.4159 35.5805 21.0055 36.8362H28.4849C27.7377 35.4806 27.1421 33.9145 26.7033 32.1305C26.4372 31.0493 26.2372 29.9003 26.0999 28.6863Z" fill="white"/>
<path d="M6.09649 31.305C6.22929 33.1503 6.49512 34.6883 6.89354 35.9182C6.99837 36.2419 7.1103 36.5474 7.22804 36.8364H18.1395C18.149 36.8007 18.1617 36.768 18.1707 36.7316C18.3817 35.8818 18.4878 34.947 18.4878 33.9274C18.4878 32.665 18.3307 31.6251 18.0168 30.8074C17.7026 29.9903 17.265 29.2942 16.7034 28.7193C16.6924 28.7079 16.6797 28.6977 16.6685 28.6866H2.89448V36.8364H4.96386L4.82825 31.3052H6.09649V31.305Z" fill="white"/>
<path d="M64.9004 28.6863V30.9893H63.6141C63.5777 30.1098 63.5265 29.3437 63.4602 28.6863H56.7843V36.8362H68.0813C68.153 36.6752 68.2219 36.5073 68.2878 36.3308C68.5654 35.5865 68.8009 34.6799 68.9942 33.6116C69.1871 32.5433 69.3683 31.2807 69.5375 29.8239H70.8057L70.5948 36.8362H78.0522V28.6863H64.9004Z" fill="white"/>
<path d="M29.9411 28.6863C29.9799 29.2576 30.0259 29.805 30.0819 30.3216C30.2631 31.9968 30.5195 33.4416 30.8518 34.6556C31.0781 35.4828 31.339 36.2081 31.6325 36.8362H43.5139C43.6297 36.5549 43.7389 36.2576 43.8407 35.9423C44.2331 34.7283 44.5019 33.1828 44.647 31.305H45.915L45.7691 36.8362H53.2517V28.6863H29.9411Z" fill="white"/>
<path d="M88.4143 31.8391C88.3625 30.5547 88.28 29.5054 88.1672 28.6863H81.5848V36.8362H96.1994V28.6863H89.7007V31.8391H88.4143Z" fill="white"/>
<path d="M21.1158 28.6863H16.6686C16.6798 28.6975 16.6923 28.7079 16.7034 28.7191C17.2648 29.2938 17.7026 29.9899 18.0169 30.8072C18.3307 31.6247 18.4878 32.6645 18.4878 33.9272C18.4878 34.947 18.3819 35.8818 18.1708 36.7314C18.1617 36.7676 18.149 36.8005 18.1396 36.8362H21.0054C21.4158 35.5805 21.6216 34.1499 21.6216 32.5431C21.6216 31.0351 21.4518 29.751 21.1158 28.6863Z" fill="white"/>
<path d="M6.89363 35.918C6.49499 34.6881 6.22938 33.1501 6.09657 31.3048H4.82834L4.96394 36.836H7.22812C7.11038 36.5472 6.99867 36.2419 6.89363 35.918Z" fill="white"/>
<path d="M30.8519 34.6556C30.5196 33.4416 30.2632 31.9968 30.082 30.3216C30.026 29.805 29.98 29.2576 29.9412 28.6863H26.0999C26.237 29.9003 26.4372 31.0493 26.7033 32.1303C27.1421 33.9145 27.7377 35.4804 28.4848 36.836H31.6326C31.339 36.2081 31.0781 35.4828 30.8519 34.6556Z" fill="white"/>
<path d="M44.6469 31.305C44.5019 33.1828 44.233 34.7285 43.8406 35.9423C43.7388 36.2574 43.6297 36.5549 43.5139 36.8362H45.769L45.9149 31.305H44.6469Z" fill="white"/>
<path d="M56.7843 28.6863H53.2517V36.8362H56.7843V28.6863Z" fill="white"/>
<path d="M63.614 30.9893H64.9003V28.6863H63.4603C63.5264 29.3437 63.5777 30.1098 63.614 30.9893Z" fill="white"/>
<path d="M69.538 29.8239C69.3688 31.2807 69.1876 32.5431 68.9947 33.6116C68.8014 34.6799 68.5659 35.5865 68.2883 36.3308C68.2224 36.5073 68.1535 36.6754 68.0818 36.8362H70.5953L70.8062 29.8239H69.538Z" fill="white"/>
<path d="M81.5847 28.6863H78.0521V36.8362H81.5847V28.6863Z" fill="white"/>
<path d="M88.4146 31.8391H89.7009V28.6863H88.1674C88.2802 29.5054 88.3627 30.5547 88.4146 31.8391Z" fill="white"/>
<path d="M4.80437 34.026H4.97636C4.99444 34.3344 5.03038 34.5916 5.08441 34.7972C5.13844 35.003 5.20538 35.1666 5.28481 35.2884C5.36423 35.4102 5.45507 35.4961 5.55752 35.546C5.65998 35.5962 5.76846 35.6212 5.88319 35.6212C6.02095 35.6212 6.13847 35.5928 6.23598 35.5359C6.33327 35.4791 6.41356 35.3999 6.47663 35.2985C6.53969 35.1969 6.58576 35.0751 6.61438 34.9332C6.64301 34.7912 6.65743 34.6349 6.65743 34.4644C6.65743 34.2535 6.63591 34.0796 6.59351 33.9429C6.55089 33.8062 6.49148 33.69 6.41528 33.5938C6.33908 33.4978 6.24782 33.4145 6.14149 33.3441C6.03494 33.2737 5.91785 33.2005 5.78999 33.1247C5.66213 33.049 5.54073 32.9691 5.42515 32.8854C5.30977 32.8014 5.20775 32.6973 5.11928 32.5728C5.03081 32.4484 4.96086 32.2962 4.90898 32.1161C4.85754 31.9361 4.83171 31.7123 4.83171 31.4443C4.83171 31.1927 4.85625 30.9628 4.90554 30.7542C4.95483 30.5456 5.02737 30.3681 5.12423 30.2204C5.22088 30.073 5.34099 29.9587 5.48434 29.8775C5.62769 29.7964 5.79429 29.7557 5.98436 29.7557C6.05969 29.7557 6.1374 29.7617 6.21768 29.774C6.29797 29.7863 6.37783 29.8046 6.45725 29.8287C6.53668 29.853 6.61481 29.8823 6.69187 29.916C6.76893 29.9498 6.84168 29.9871 6.91078 30.0278L6.94027 31.5011H6.76829C6.75365 31.2088 6.72072 30.9708 6.66992 30.7867C6.61912 30.6027 6.55734 30.4587 6.48459 30.3545C6.41162 30.2503 6.33047 30.1787 6.24115 30.1393C6.15182 30.0999 6.06055 30.0805 5.96735 30.0805C5.84272 30.0805 5.73467 30.1055 5.64298 30.1556C5.55107 30.2058 5.47508 30.2774 5.41438 30.3709C5.35368 30.4643 5.30827 30.5779 5.27792 30.7118C5.24757 30.8459 5.2325 30.9966 5.2325 31.1645C5.2325 31.3647 5.25381 31.5313 5.29643 31.6636C5.33883 31.7962 5.3991 31.9105 5.47702 32.0065C5.55472 32.1027 5.64814 32.188 5.75706 32.2622C5.86619 32.3367 5.98586 32.4146 6.11716 32.4956C6.23684 32.5713 6.35437 32.6518 6.46974 32.7371C6.58533 32.8223 6.68864 32.9293 6.77926 33.0578C6.87031 33.1863 6.9435 33.3447 6.99924 33.5328C7.05478 33.721 7.08276 33.9543 7.08276 34.233C7.08276 34.5036 7.05456 34.7445 6.99795 34.9554C6.94134 35.1663 6.86019 35.3437 6.75451 35.4871C6.64904 35.6306 6.51989 35.7402 6.3675 35.816C6.2151 35.8917 6.04312 35.9296 5.85155 35.9296C5.76803 35.9296 5.68172 35.9229 5.59239 35.9094C5.50307 35.8958 5.4146 35.8756 5.32721 35.8485C5.2396 35.8213 5.15394 35.7901 5.07042 35.755C4.9869 35.72 4.90898 35.6793 4.83709 35.6334L4.80437 34.026Z" fill="#064F94"/>
<path d="M9.64031 35.7916C9.57165 35.8134 9.50772 35.8267 9.44852 35.8321C9.38976 35.8375 9.34305 35.8403 9.30861 35.8403C9.22187 35.8403 9.15019 35.8289 9.09358 35.8058C9.03697 35.783 8.99242 35.7497 8.9597 35.7064C8.92698 35.6631 8.90309 35.6104 8.88845 35.5482C8.87381 35.486 8.86477 35.4169 8.86155 35.3411H8.84906C8.80321 35.4466 8.75414 35.5359 8.70162 35.6091C8.6491 35.6821 8.59421 35.7404 8.53674 35.7837C8.47948 35.8269 8.42094 35.8581 8.36131 35.8771C8.30147 35.896 8.2412 35.9055 8.1805 35.9055C8.08063 35.9055 7.9913 35.8831 7.91274 35.8386C7.83417 35.794 7.76788 35.7309 7.71364 35.6498C7.65961 35.5686 7.61871 35.472 7.59094 35.3596C7.56296 35.2475 7.54919 35.1235 7.54919 34.9881C7.54919 34.6121 7.66111 34.3258 7.88476 34.1297C8.1084 33.9336 8.43062 33.8288 8.85164 33.8152C8.85315 33.6934 8.85444 33.5839 8.8553 33.4863C8.85616 33.3891 8.8566 33.2931 8.8566 33.1981C8.8566 32.9519 8.82582 32.7795 8.76447 32.6807C8.70312 32.5821 8.60605 32.5326 8.47324 32.5326C8.38477 32.5326 8.30578 32.5487 8.23582 32.5812C8.1663 32.6137 8.10926 32.657 8.06513 32.7112C8.10452 32.7737 8.13337 32.8391 8.15231 32.9082C8.17125 32.9773 8.1805 33.0455 8.1805 33.1131C8.1805 33.2268 8.15833 33.3215 8.11421 33.3972C8.06987 33.473 8.00938 33.5109 7.93233 33.5109C7.89961 33.5109 7.86754 33.5027 7.83654 33.4866C7.80533 33.4704 7.77821 33.4448 7.75539 33.4095C7.73258 33.3742 7.71407 33.3303 7.70008 33.2776C7.6863 33.2246 7.6792 33.1633 7.6792 33.0929C7.6792 32.982 7.69749 32.8744 7.73451 32.7702C7.77132 32.666 7.82621 32.5733 7.89918 32.4921C7.97215 32.411 8.06298 32.346 8.17211 32.2973C8.28103 32.2485 8.40845 32.2241 8.55396 32.2241C8.67191 32.2241 8.77631 32.2431 8.86736 32.281C8.95819 32.3188 9.03503 32.3819 9.09832 32.4697C9.16117 32.5578 9.20895 32.6747 9.24081 32.8208C9.27267 32.967 9.28881 33.1482 9.28881 33.3647C9.28881 33.4188 9.28838 33.5074 9.28752 33.6306C9.28666 33.7537 9.28537 33.8897 9.28364 34.0385C9.28192 34.1872 9.28063 34.3383 9.27998 34.4911C9.27912 34.6439 9.27869 34.7787 9.27869 34.8949C9.27869 35.014 9.2802 35.1134 9.28343 35.1933C9.28687 35.2731 9.29505 35.3368 9.30797 35.3842C9.3211 35.4315 9.34068 35.4653 9.36694 35.4856C9.39299 35.5058 9.43001 35.5161 9.47758 35.5161C9.51826 35.5161 9.5725 35.5079 9.63966 35.4918V35.7916H9.64031ZM8.85164 34.1194C8.67299 34.1276 8.52877 34.15 8.419 34.1865C8.30922 34.2229 8.2242 34.2746 8.1635 34.3407C8.1028 34.407 8.06169 34.4875 8.0406 34.5822C8.01929 34.6769 8.00874 34.7851 8.00874 34.907C8.00874 35.1179 8.03543 35.2757 8.0886 35.3799C8.14176 35.4841 8.21516 35.5361 8.30836 35.5361C8.35916 35.5361 8.4162 35.5185 8.47927 35.4834C8.54233 35.4483 8.60153 35.3906 8.65728 35.3108C8.71303 35.2309 8.7593 35.1261 8.79633 34.9963C8.83313 34.8665 8.85164 34.7055 8.85164 34.5133V34.1194Z" fill="#064F94"/>
<path d="M10.6968 35.4668H11.0285V35.7917H9.8858V35.4668H10.2543V32.6581H9.8858V32.3333H10.6968V32.9218H10.7065C10.7739 32.6973 10.8637 32.5246 10.9769 32.4043C11.0899 32.284 11.2356 32.2237 11.4143 32.2237C11.6388 32.2237 11.8056 32.3191 11.9156 32.51C12.0253 32.7007 12.0802 32.9734 12.0802 33.3279V35.4671H12.4365V35.7919H11.3062V35.4671H11.6379V33.2143C11.6379 33.0006 11.6073 32.8428 11.5469 32.7414C11.4864 32.6398 11.4011 32.589 11.2911 32.589C11.2076 32.589 11.1299 32.6181 11.0578 32.6764C10.9857 32.7347 10.9231 32.8245 10.8699 32.9463C10.8165 33.0681 10.7745 33.2238 10.7433 33.413C10.7121 33.6024 10.6966 33.8271 10.6966 34.0867L10.6968 35.4668Z" fill="#064F94"/>
<path d="M14.2449 34.9799C14.2006 35.2966 14.1276 35.5299 14.026 35.6801C13.9244 35.8304 13.7845 35.9053 13.6058 35.9053C13.5124 35.9053 13.4287 35.8863 13.354 35.8485C13.2793 35.8106 13.2158 35.7503 13.1635 35.6679C13.1112 35.5854 13.0709 35.4797 13.043 35.3512C13.0152 35.2227 13.0014 35.0665 13.0014 34.8824V32.6581H12.6327V32.3333H13.0014V31.5459L13.4438 31.4241V32.3333H14.0826V32.6581H13.4438V34.9718C13.4438 35.0828 13.4498 35.1734 13.4621 35.2436C13.4745 35.314 13.4922 35.3693 13.515 35.41C13.5378 35.4505 13.5647 35.4782 13.5961 35.4931C13.6271 35.5079 13.6624 35.5155 13.7016 35.5155C13.7541 35.5155 13.7991 35.5026 13.8368 35.4769C13.8745 35.4513 13.9076 35.4119 13.9365 35.3592C13.9651 35.3065 13.9896 35.2408 14.0101 35.1623C14.0307 35.0837 14.0499 34.9931 14.068 34.8902C14.0992 34.8984 14.1293 34.9091 14.1588 34.9227C14.1883 34.9367 14.2169 34.9554 14.2449 34.9799Z" fill="#064F94"/>
<path d="M14.5153 34.0951C14.5153 33.8407 14.5394 33.5998 14.5876 33.3725C14.636 33.1452 14.7068 32.9463 14.8003 32.7758C14.8937 32.6054 15.0078 32.4708 15.1429 32.372C15.2781 32.2734 15.4318 32.2239 15.6038 32.2239C15.7743 32.2239 15.9249 32.2722 16.056 32.3682C16.1871 32.4642 16.2969 32.5948 16.3853 32.7597C16.4736 32.9248 16.5405 33.117 16.5855 33.3361C16.6307 33.5552 16.6531 33.7881 16.6531 34.0342C16.6531 34.2886 16.629 34.5294 16.5806 34.7567C16.5321 34.984 16.4613 35.1829 16.3681 35.3534C16.2749 35.5239 16.1604 35.6584 16.0252 35.7572C15.8901 35.8558 15.7364 35.9053 15.5644 35.9053C15.3941 35.9053 15.2435 35.8573 15.1122 35.7613C14.9813 35.6653 14.8715 35.5346 14.783 35.3696C14.6946 35.2045 14.6276 35.0125 14.5826 34.7931C14.5377 34.574 14.5153 34.3413 14.5153 34.0951ZM15.0015 34.0787C15.0015 34.3738 15.014 34.6186 15.0385 34.8134C15.0629 35.0082 15.099 35.1638 15.1466 35.2802C15.1942 35.3967 15.2538 35.4785 15.3259 35.5258C15.398 35.5732 15.4824 35.5969 15.579 35.5969C15.6739 35.5969 15.7585 35.5725 15.8322 35.5239C15.906 35.4752 15.9673 35.3919 16.0164 35.2742C16.0655 35.1565 16.1027 34.9982 16.1283 34.7991C16.1537 34.6003 16.1664 34.3508 16.1664 34.0503C16.1664 33.7554 16.1542 33.5105 16.1296 33.3155C16.1051 33.1207 16.0689 32.965 16.0214 32.8488C15.9738 32.7326 15.9137 32.6506 15.8408 32.6032C15.7678 32.5558 15.6838 32.5322 15.5889 32.5322C15.4923 32.5322 15.4075 32.5565 15.3345 32.6051C15.2615 32.6538 15.2006 32.7371 15.1513 32.8548C15.102 32.9726 15.065 33.1308 15.0394 33.3299C15.0142 33.5288 15.0015 33.7785 15.0015 34.0787Z" fill="#064F94"/>
<path d="M18.4491 33.4821C18.4409 33.3062 18.4233 33.1572 18.3962 33.0356C18.3693 32.9138 18.3327 32.815 18.2868 32.7392C18.241 32.6635 18.1857 32.6088 18.1209 32.5748C18.0561 32.541 17.982 32.524 17.8985 32.524C17.8346 32.524 17.7758 32.5341 17.7216 32.5546C17.6676 32.5748 17.6208 32.606 17.5817 32.648C17.5423 32.6899 17.5117 32.7448 17.4895 32.8124C17.4674 32.88 17.4564 32.9614 17.4564 33.0561C17.4564 33.1508 17.4667 33.2285 17.4872 33.2894C17.5076 33.3503 17.5412 33.4046 17.5879 33.4517C17.6346 33.4991 17.6945 33.5445 17.7674 33.5877C17.8402 33.631 17.9299 33.6825 18.0365 33.7421C18.1217 33.7907 18.2059 33.8422 18.2896 33.8962C18.3731 33.9504 18.448 34.018 18.5143 34.0992C18.5808 34.1803 18.6344 34.2785 18.6753 34.3934C18.7162 34.5086 18.7367 34.6485 18.7367 34.8136C18.7367 35.0004 18.7113 35.1627 18.6605 35.3007C18.6097 35.4386 18.5425 35.5523 18.4588 35.6416C18.3753 35.7309 18.2804 35.7972 18.1738 35.8405C18.0675 35.8838 17.9584 35.9055 17.8471 35.9055C17.7881 35.9055 17.7255 35.9001 17.6589 35.8894C17.5926 35.8786 17.5272 35.8635 17.4624 35.8446C17.3976 35.8257 17.3363 35.8033 17.2782 35.7777C17.2201 35.7518 17.1688 35.7256 17.1247 35.6984L17.1075 34.5213H17.2771C17.2851 34.727 17.3027 34.8995 17.3298 35.0387C17.3567 35.178 17.3946 35.2897 17.4428 35.3736C17.4911 35.4576 17.55 35.5172 17.6196 35.5523C17.6891 35.5876 17.7707 35.605 17.8641 35.605C17.9345 35.605 17.9997 35.5949 18.0595 35.5747C18.1191 35.5544 18.1714 35.5219 18.2156 35.4772C18.2597 35.4324 18.2946 35.3736 18.32 35.3007C18.3454 35.2277 18.3581 35.1397 18.3581 35.0368C18.3581 34.9475 18.3482 34.8738 18.3286 34.8155C18.3088 34.7572 18.2778 34.7053 18.2352 34.6592C18.1925 34.6132 18.1377 34.5699 18.0703 34.5292C18.0031 34.4888 17.9228 34.4414 17.8296 34.3872C17.7362 34.3331 17.6465 34.277 17.5606 34.2188C17.4747 34.1605 17.3987 34.0903 17.3331 34.0077C17.2676 33.9252 17.2151 33.8258 17.1759 33.7094C17.1368 33.5929 17.1172 33.4508 17.1172 33.2832C17.1172 33.0993 17.14 32.9403 17.1858 32.8064C17.2317 32.6723 17.2928 32.5621 17.369 32.4756C17.4452 32.389 17.5328 32.3253 17.632 32.2849C17.7311 32.2444 17.8339 32.2239 17.9405 32.2239C17.9945 32.2239 18.0511 32.2287 18.1099 32.2381C18.1689 32.2476 18.2276 32.2605 18.2855 32.2767C18.3439 32.2928 18.3994 32.3111 18.4526 32.3313C18.5057 32.3516 18.5546 32.3714 18.5989 32.3901L18.6159 33.4821H18.4491Z" fill="#064F94"/>
<path d="M23.2728 34.026L23.2383 35.6334C23.1597 35.6795 23.0749 35.7206 22.9839 35.7572C22.8931 35.7936 22.8009 35.8248 22.7075 35.8506C22.6141 35.8762 22.5222 35.8958 22.4311 35.9094C22.3403 35.9229 22.2555 35.9296 22.1767 35.9296C21.9262 35.9296 21.7004 35.8592 21.4998 35.7187C21.2989 35.5779 21.1287 35.3771 20.9886 35.116C20.8486 34.8549 20.7415 34.5374 20.6668 34.1642C20.5921 33.7909 20.5548 33.3701 20.5548 32.9017C20.5548 32.4228 20.5942 31.99 20.6728 31.6029C20.7514 31.2159 20.8637 30.8851 21.0094 30.6104C21.1552 30.3358 21.3317 30.1248 21.5389 29.9772C21.7462 29.8297 21.9774 29.7559 22.2331 29.7559C22.3052 29.7559 22.3812 29.7619 22.4617 29.7742C22.5422 29.7865 22.6236 29.8041 22.7064 29.8269C22.7891 29.85 22.8711 29.8777 22.952 29.9102C23.0332 29.9427 23.1113 29.9791 23.1869 30.0198L23.2164 31.5013H23.0444C23.0297 31.2065 22.9972 30.9662 22.9473 30.7809C22.8974 30.5956 22.8347 30.4516 22.7594 30.3487C22.6838 30.2458 22.5988 30.1754 22.5037 30.1375C22.4088 30.0997 22.308 30.0807 22.2015 30.0807C22.0934 30.0807 21.991 30.0969 21.8943 30.1294C21.7977 30.1619 21.7079 30.2187 21.6253 30.2998C21.5424 30.381 21.4681 30.4893 21.4016 30.6246C21.3353 30.76 21.2794 30.9318 21.2333 31.1402C21.1874 31.3485 21.1519 31.5954 21.1265 31.8808C21.1011 32.1665 21.0884 32.4986 21.0884 32.8772C21.0884 33.2535 21.1007 33.5815 21.1252 33.8615C21.1498 34.1416 21.1846 34.3831 21.2296 34.586C21.2746 34.789 21.3295 34.9561 21.3943 35.0874C21.4591 35.2187 21.5312 35.3228 21.6106 35.3999C21.69 35.477 21.7766 35.5305 21.8698 35.5603C21.963 35.59 22.0616 35.6048 22.1647 35.6048C22.2891 35.6048 22.4042 35.5811 22.5099 35.5338C22.6156 35.4864 22.709 35.4033 22.7902 35.2841C22.8713 35.1651 22.9383 35.0041 22.9919 34.8011C23.045 34.5981 23.0814 34.3396 23.1012 34.0258H23.2728V34.026Z" fill="#064F94"/>
<path d="M24.9556 35.7916H23.7515V35.4668H24.12V32.6581H23.7515V32.3333H24.5626V32.9624H24.5723C24.602 32.857 24.6384 32.7603 24.6818 32.6723C24.7251 32.5845 24.7731 32.5078 24.8254 32.443C24.8779 32.378 24.9337 32.3281 24.9924 32.2928C25.0514 32.2577 25.1113 32.2401 25.172 32.2401C25.2701 32.2401 25.3513 32.2874 25.4152 32.3821C25.4791 32.4768 25.511 32.6081 25.511 32.7758C25.511 32.9245 25.4864 33.0403 25.4371 33.1228C25.3878 33.2054 25.3241 33.2466 25.2454 33.2466C25.1636 33.2466 25.1007 33.2074 25.0574 33.1288C25.014 33.0503 24.9922 32.9517 24.9922 32.8326C24.9922 32.7704 24.9995 32.7026 25.0144 32.6297C24.9507 32.6675 24.8913 32.7278 24.8364 32.8103C24.7815 32.8929 24.7335 32.9964 24.6926 33.1209C24.6517 33.2453 24.6196 33.3895 24.5968 33.5531C24.574 33.7167 24.5626 33.8988 24.5626 34.0989V35.4668H24.9556V35.7916Z" fill="#064F94"/>
<path d="M27.6738 34.6917C27.6213 35.0841 27.5197 35.3844 27.369 35.593C27.2183 35.8013 27.0227 35.9055 26.7816 35.9055C26.6161 35.9055 26.4688 35.8575 26.3393 35.7615C26.2097 35.6655 26.1001 35.5348 26.0102 35.3698C25.92 35.2047 25.8513 35.012 25.8037 34.7914C25.7562 34.571 25.7325 34.3361 25.7325 34.0871C25.7325 33.8329 25.757 33.592 25.8061 33.3647C25.8554 33.1374 25.9253 32.9398 26.0164 32.7722C26.1072 32.6045 26.2164 32.4712 26.3434 32.3724C26.4701 32.2739 26.6124 32.2244 26.7695 32.2244C26.9135 32.2244 27.0431 32.2663 27.1578 32.3503C27.2724 32.4342 27.3699 32.5511 27.4502 32.7013C27.5304 32.8516 27.5922 33.0309 27.6355 33.2392C27.679 33.4476 27.7024 33.6762 27.7057 33.9252H26.2239C26.2222 33.9713 26.2213 34.0016 26.2213 34.0165C26.2213 34.0314 26.2213 34.0402 26.2213 34.043C26.2213 34.3622 26.2355 34.622 26.2641 34.8224C26.293 35.0226 26.333 35.1788 26.3847 35.2912C26.4363 35.4035 26.4977 35.48 26.5689 35.5204C26.6402 35.5611 26.7192 35.5813 26.8061 35.5813C26.8864 35.5813 26.9622 35.5637 27.0334 35.5286C27.1047 35.4935 27.169 35.4373 27.2263 35.3601C27.2836 35.2828 27.3339 35.1829 27.3774 35.0596C27.4207 34.9365 27.4555 34.7884 27.4818 34.6151C27.5145 34.6205 27.5472 34.63 27.5799 34.6435C27.6131 34.6566 27.6443 34.6728 27.6738 34.6917ZM27.2093 33.608C27.2046 33.3835 27.1899 33.2014 27.1665 33.0621C27.1428 32.9228 27.1111 32.8139 27.072 32.7354C27.0328 32.6568 26.9863 32.6034 26.9329 32.575C26.8797 32.5466 26.821 32.5324 26.7573 32.5324C26.6901 32.5324 26.6275 32.5485 26.5694 32.581C26.5112 32.6135 26.4592 32.6703 26.4133 32.7515C26.3672 32.8326 26.3291 32.9422 26.299 33.0802C26.2687 33.2184 26.2478 33.394 26.2364 33.608H27.2093Z" fill="#064F94"/>
<path d="M30.2388 35.7916C30.1701 35.8134 30.1062 35.8267 30.047 35.8321C29.9882 35.8375 29.9415 35.8403 29.9071 35.8403C29.8203 35.8403 29.7487 35.8289 29.6921 35.8058C29.6354 35.783 29.5909 35.7497 29.5582 35.7064C29.5255 35.6631 29.5016 35.6104 29.4869 35.5482C29.4723 35.486 29.4632 35.4169 29.46 35.3411H29.4475C29.4017 35.4466 29.3526 35.5359 29.3001 35.6091C29.2476 35.6821 29.1927 35.7404 29.1352 35.7837C29.078 35.8269 29.0194 35.8581 28.9598 35.8771C28.8999 35.896 28.8397 35.9055 28.779 35.9055C28.6791 35.9055 28.5898 35.8831 28.5112 35.8386C28.4326 35.794 28.3663 35.7309 28.3121 35.6498C28.2581 35.5686 28.2172 35.472 28.1894 35.3596C28.1614 35.2475 28.1477 35.1235 28.1477 34.9881C28.1477 34.6121 28.2596 34.3258 28.4832 34.1297C28.7069 33.9336 29.0291 33.8288 29.4501 33.8152C29.4516 33.6934 29.4529 33.5839 29.4538 33.4863C29.4546 33.3891 29.4551 33.2931 29.4551 33.1981C29.4551 32.9519 29.4243 32.7795 29.3629 32.6807C29.3016 32.5821 29.2045 32.5326 29.0717 32.5326C28.9832 32.5326 28.9043 32.5487 28.8343 32.5812C28.7648 32.6137 28.7077 32.657 28.6636 32.7112C28.703 32.7737 28.7318 32.8391 28.7508 32.9082C28.7697 32.9773 28.779 33.0455 28.779 33.1131C28.779 33.2268 28.7568 33.3215 28.7127 33.3972C28.6683 33.473 28.6079 33.5109 28.5308 33.5109C28.4981 33.5109 28.466 33.5027 28.435 33.4866C28.4038 33.4704 28.3767 33.4448 28.3539 33.4095C28.331 33.3742 28.3125 33.3303 28.2985 33.2776C28.2848 33.2246 28.2777 33.1633 28.2777 33.0929C28.2777 32.982 28.296 32.8744 28.333 32.7702C28.3698 32.666 28.4247 32.5733 28.4976 32.4921C28.5706 32.411 28.6615 32.346 28.7706 32.2973C28.8795 32.2485 29.0069 32.2241 29.1524 32.2241C29.2704 32.2241 29.3748 32.2431 29.4658 32.281C29.5567 32.3188 29.6335 32.3819 29.6968 32.4697C29.7596 32.5578 29.8074 32.6747 29.8393 32.8208C29.8711 32.967 29.8873 33.1482 29.8873 33.3647C29.8873 33.4188 29.8868 33.5074 29.886 33.6306C29.8851 33.7537 29.8838 33.8897 29.8821 34.0385C29.8804 34.1872 29.8791 34.3383 29.8785 34.4911C29.8776 34.6439 29.8772 34.7787 29.8772 34.8949C29.8772 35.014 29.8787 35.1134 29.8819 35.1933C29.8853 35.2731 29.8935 35.3368 29.9064 35.3842C29.9196 35.4315 29.9392 35.4653 29.9654 35.4856C29.9915 35.5058 30.0285 35.5161 30.0761 35.5161C30.1167 35.5161 30.171 35.5079 30.2381 35.4918V35.7916H30.2388ZM29.4501 34.1194C29.2715 34.1276 29.1272 34.15 29.0175 34.1865C28.9077 34.2229 28.8227 34.2746 28.762 34.3407C28.7013 34.407 28.6602 34.4875 28.6391 34.5822C28.6178 34.6769 28.6072 34.7851 28.6072 34.907C28.6072 35.1179 28.6339 35.2757 28.6871 35.3799C28.7402 35.4841 28.8136 35.5361 28.9068 35.5361C28.9576 35.5361 29.0147 35.5185 29.0777 35.4834C29.1408 35.4483 29.2 35.3906 29.2557 35.3108C29.3115 35.2309 29.3578 35.1261 29.3948 34.9963C29.4316 34.8665 29.4501 34.7055 29.4501 34.5133V34.1194Z" fill="#064F94"/>
<path d="M32.0473 34.9799C32.003 35.2966 31.93 35.5299 31.8284 35.6801C31.7268 35.8304 31.5869 35.9053 31.4083 35.9053C31.3148 35.9053 31.2311 35.8863 31.1564 35.8485C31.0817 35.8106 31.0182 35.7503 30.9659 35.6679C30.9136 35.5854 30.8734 35.4797 30.8454 35.3512C30.8176 35.2227 30.8038 35.0665 30.8038 34.8824V32.6581H30.4351V32.3333H30.8038V31.5459L31.2462 31.4241V32.3333H31.885V32.6581H31.2462V34.9718C31.2462 35.0828 31.2522 35.1734 31.2645 35.2436C31.277 35.314 31.2946 35.3693 31.3174 35.41C31.3402 35.4505 31.3671 35.4782 31.3986 35.4931C31.4296 35.5079 31.4649 35.5155 31.504 35.5155C31.5566 35.5155 31.6015 35.5026 31.6392 35.4769C31.6769 35.4513 31.71 35.4119 31.7389 35.3592C31.7675 35.3065 31.792 35.2408 31.8125 35.1623C31.8331 35.0837 31.8523 34.9931 31.8704 34.8902C31.9016 34.8984 31.9317 34.9091 31.9612 34.9227C31.9907 34.9367 32.0193 34.9554 32.0473 34.9799Z" fill="#064F94"/>
<path d="M33.0798 35.4668H33.4483V35.7917H32.2689V35.4668H32.6374V32.6581H32.2689V32.3333H33.08V35.4668H33.0798ZM32.8583 31.1886C32.8159 31.1886 32.7769 31.1772 32.7416 31.1542C32.7065 31.1313 32.6753 31.098 32.6482 31.0547C32.6211 31.0115 32.6002 30.9607 32.5855 30.9023C32.5709 30.8442 32.5634 30.7786 32.5634 30.7054C32.5634 30.635 32.5711 30.5702 32.5866 30.5106C32.6021 30.451 32.623 30.3995 32.6493 30.3562C32.6753 30.313 32.7067 30.2792 32.7427 30.2546C32.7786 30.2303 32.8174 30.2183 32.8581 30.2183C32.8989 30.2183 32.9375 30.2299 32.9736 30.2527C33.0096 30.2757 33.041 30.3089 33.0681 30.3521C33.0953 30.3956 33.1161 30.4462 33.1308 30.5045C33.1454 30.5629 33.1529 30.6283 33.1529 30.7015C33.1529 30.7747 33.1452 30.8408 33.1297 30.9004C33.1142 30.96 33.0933 31.0108 33.0671 31.0526C33.0408 31.0945 33.0096 31.1277 32.9736 31.152C32.9377 31.1765 32.8994 31.1886 32.8583 31.1886Z" fill="#064F94"/>
<path d="M33.7798 34.0951C33.7798 33.8407 33.804 33.5998 33.8522 33.3725C33.9006 33.1452 33.9714 32.9463 34.0648 32.7758C34.1583 32.6054 34.2723 32.4708 34.4075 32.372C34.5427 32.2734 34.6964 32.2239 34.8683 32.2239C35.0388 32.2239 35.1895 32.2722 35.3206 32.3682C35.4517 32.4642 35.5614 32.5948 35.6499 32.7597C35.7382 32.9248 35.8051 33.117 35.8501 33.3361C35.8953 33.5552 35.9177 33.7881 35.9177 34.0342C35.9177 34.2886 35.8936 34.5294 35.8451 34.7567C35.7967 34.984 35.7259 35.1829 35.6327 35.3534C35.5395 35.5239 35.425 35.6584 35.2898 35.7572C35.1546 35.8558 35.0009 35.9053 34.829 35.9053C34.6587 35.9053 34.508 35.8573 34.3767 35.7613C34.2459 35.6653 34.1361 35.5346 34.0476 35.3696C33.9591 35.2045 33.8922 35.0125 33.8472 34.7931C33.8022 34.574 33.7798 34.3413 33.7798 34.0951ZM34.2661 34.0787C34.2661 34.3738 34.2786 34.6186 34.3031 34.8134C34.3274 35.0082 34.3636 35.1638 34.4112 35.2802C34.4587 35.3967 34.5184 35.4785 34.5905 35.5258C34.6626 35.5732 34.7469 35.5969 34.8436 35.5969C34.9385 35.5969 35.0231 35.5725 35.0967 35.5239C35.1706 35.4752 35.2319 35.3919 35.281 35.2742C35.3301 35.1565 35.3673 34.9982 35.3929 34.7991C35.4183 34.6003 35.431 34.3508 35.431 34.0503C35.431 33.7554 35.4187 33.5105 35.3942 33.3155C35.3697 33.1207 35.3335 32.965 35.2859 32.8488C35.2384 32.7326 35.1783 32.6506 35.1053 32.6032C35.0324 32.5558 34.9484 32.5322 34.8535 32.5322C34.7569 32.5322 34.672 32.5565 34.5991 32.6051C34.5261 32.6538 34.4652 32.7371 34.4159 32.8548C34.3666 32.9726 34.3296 33.1308 34.304 33.3299C34.2788 33.5288 34.2661 33.7785 34.2661 34.0787Z" fill="#064F94"/>
<path d="M37.0725 35.4668H37.4042V35.7917H36.2615V35.4668H36.63V32.6581H36.2615V32.3333H37.0725V32.9218H37.0822C37.1496 32.6973 37.2394 32.5246 37.3526 32.4043C37.4656 32.284 37.6113 32.2237 37.79 32.2237C38.0145 32.2237 38.1813 32.3191 38.2913 32.51C38.401 32.7007 38.4559 32.9734 38.4559 33.3279V35.4671H38.8122V35.7919H37.6819V35.4671H38.0136V33.2143C38.0136 33.0006 37.983 32.8428 37.9226 32.7414C37.8621 32.6398 37.7768 32.589 37.6668 32.589C37.5833 32.589 37.5056 32.6181 37.4335 32.6764C37.3614 32.7347 37.2988 32.8245 37.2456 32.9463C37.1922 33.0681 37.1502 33.2238 37.119 33.413C37.0878 33.6024 37.0723 33.8271 37.0723 34.0867V35.4668H37.0725Z" fill="#064F94"/>
<path d="M40.5102 33.4821C40.502 33.3062 40.4844 33.1572 40.4573 33.0356C40.4304 32.9138 40.3938 32.815 40.3479 32.7392C40.3021 32.6635 40.2468 32.6088 40.182 32.5748C40.1172 32.541 40.0431 32.524 39.9596 32.524C39.8957 32.524 39.8369 32.5341 39.7827 32.5546C39.7287 32.5748 39.6819 32.606 39.6428 32.648C39.6034 32.6899 39.5728 32.7448 39.5506 32.8124C39.5285 32.88 39.5175 32.9614 39.5175 33.0561C39.5175 33.1508 39.5278 33.2285 39.5483 33.2894C39.5687 33.3503 39.6023 33.4046 39.649 33.4517C39.6957 33.4991 39.7556 33.5445 39.8285 33.5877C39.9013 33.631 39.991 33.6825 40.0976 33.7421C40.1828 33.7907 40.267 33.8422 40.3507 33.8962C40.4342 33.9504 40.5091 34.018 40.5754 34.0992C40.6419 34.1803 40.6955 34.2785 40.7364 34.3934C40.7773 34.5086 40.7978 34.6485 40.7978 34.8136C40.7978 35.0004 40.7724 35.1627 40.7216 35.3007C40.6708 35.4386 40.6036 35.5523 40.5199 35.6416C40.4364 35.7309 40.3415 35.7972 40.2349 35.8405C40.1286 35.8838 40.0195 35.9055 39.9082 35.9055C39.8492 35.9055 39.7866 35.9001 39.72 35.8894C39.6537 35.8786 39.5883 35.8635 39.5235 35.8446C39.4587 35.8257 39.3974 35.8033 39.3393 35.7777C39.2812 35.7518 39.2299 35.7256 39.1858 35.6984L39.1686 34.5213H39.3382C39.3462 34.727 39.3638 34.8995 39.3909 35.0387C39.4178 35.178 39.4557 35.2897 39.5039 35.3736C39.5522 35.4576 39.6111 35.5172 39.6807 35.5523C39.7502 35.5876 39.8318 35.605 39.9252 35.605C39.9956 35.605 40.0608 35.5949 40.1206 35.5747C40.1802 35.5544 40.2325 35.5219 40.2767 35.4772C40.3208 35.4324 40.3557 35.3736 40.3811 35.3007C40.4065 35.2277 40.4192 35.1397 40.4192 35.0368C40.4192 34.9475 40.4093 34.8738 40.3897 34.8155C40.3699 34.7572 40.3389 34.7053 40.2963 34.6592C40.2536 34.6132 40.1988 34.5699 40.1314 34.5292C40.0642 34.4888 39.9839 34.4414 39.8907 34.3872C39.7973 34.3331 39.7076 34.277 39.6217 34.2188C39.5358 34.1605 39.4598 34.0903 39.3942 34.0077C39.3287 33.9252 39.2762 33.8258 39.237 33.7094C39.1979 33.5929 39.1783 33.4508 39.1783 33.2832C39.1783 33.0993 39.2011 32.9403 39.2469 32.8064C39.2928 32.6723 39.3539 32.5621 39.4301 32.4756C39.5063 32.389 39.5939 32.3253 39.6931 32.2849C39.7922 32.2444 39.895 32.2239 40.0016 32.2239C40.0556 32.2239 40.1122 32.2287 40.171 32.2381C40.23 32.2476 40.2887 32.2605 40.3466 32.2767C40.405 32.2928 40.4605 32.3111 40.5137 32.3313C40.5668 32.3516 40.6157 32.3714 40.66 32.3901L40.677 33.4821H40.5102Z" fill="#064F94"/>
<path d="M43.4141 32.5687H43.7361C43.8459 32.5687 43.9376 32.5621 44.0112 32.5485C44.085 32.535 44.1442 32.4964 44.1892 32.4327C44.2344 32.3692 44.2682 32.2704 44.2914 32.1365C44.3142 32.0026 44.3308 31.8139 44.3405 31.5704H44.5151V33.9734H44.3405C44.3323 33.7272 44.3183 33.5331 44.299 33.391C44.2792 33.2489 44.2473 33.1413 44.2032 33.0683C44.1588 32.9952 44.0996 32.9493 44.0249 32.9301C43.9503 32.9114 43.8543 32.9017 43.7363 32.9017H43.4143V35.467H44.0654C44.1933 35.467 44.3054 35.4589 44.4021 35.4427C44.4985 35.4264 44.5831 35.3967 44.6552 35.3534C44.7271 35.3101 44.7891 35.2492 44.8405 35.1706C44.8922 35.0923 44.9367 34.9907 44.9744 34.8663C45.0121 34.7419 45.0439 34.5901 45.0702 34.4117C45.0964 34.2333 45.121 34.0219 45.144 33.7784H45.316L45.2667 35.7918H42.4435V35.467H42.9349V30.2187H42.4435V29.8939H45.2054L45.2547 31.5216H45.0827C45.0581 31.251 45.0276 31.0312 44.9916 30.8621C44.9557 30.6929 44.9053 30.5605 44.8405 30.4643C44.7757 30.3683 44.6916 30.3033 44.5874 30.2695C44.4832 30.2357 44.3519 30.2187 44.1931 30.2187H43.4141V32.5687Z" fill="#064F94"/>
<path d="M47.9432 35.4668H48.3119V35.7916H47.5008V35.3004H47.4909C47.4485 35.4169 47.402 35.5135 47.3521 35.5906C47.3022 35.6677 47.2492 35.7301 47.1937 35.7774C47.1381 35.8248 47.0798 35.8579 47.0191 35.8769C46.9584 35.8958 46.8971 35.9053 46.8349 35.9053C46.6792 35.9053 46.5408 35.8573 46.4196 35.7613C46.2985 35.6653 46.196 35.5355 46.1123 35.3717C46.0288 35.2079 45.9653 35.0165 45.9218 34.7974C45.8785 34.5781 45.8568 34.3443 45.8568 34.0953C45.8568 33.8355 45.8805 33.5914 45.928 33.3626C45.9756 33.1338 46.043 32.9357 46.1306 32.7679C46.2182 32.6 46.3232 32.4674 46.4451 32.3701C46.5671 32.2726 46.7027 32.2239 46.8519 32.2239C46.9961 32.2239 47.1222 32.2734 47.2303 32.372C47.3385 32.4708 47.4253 32.6094 47.4907 32.7881H47.5006V30.2187H47.1076V29.8939H47.9429V35.4668H47.9432ZM46.3437 34.0707C46.3437 34.3792 46.3568 34.6315 46.3831 34.8278C46.4093 35.0241 46.4461 35.1782 46.4937 35.2903C46.5413 35.4027 46.5981 35.4797 46.6646 35.5217C46.7309 35.5637 46.8034 35.5846 46.882 35.5846C47.0064 35.5846 47.1087 35.54 47.1881 35.4507C47.2675 35.3614 47.3306 35.2436 47.3773 35.0975C47.424 34.9513 47.4563 34.7856 47.4741 34.6002C47.4922 34.4149 47.5013 34.2261 47.5013 34.0339C47.5013 33.758 47.4862 33.5244 47.4558 33.3337C47.4255 33.143 47.3833 32.9893 47.3293 32.8731C47.2753 32.7569 47.2109 32.6729 47.1364 32.6215C47.0617 32.5703 46.9804 32.5444 46.8919 32.5444C46.8133 32.5444 46.7404 32.5647 46.6732 32.6053C46.6058 32.6458 46.5477 32.7224 46.4986 32.8346C46.4494 32.9469 46.4115 33.1019 46.3843 33.2993C46.357 33.4971 46.3437 33.7539 46.3437 34.0707Z" fill="#064F94"/>
<path d="M50.2727 32.6581H49.9165V32.3333H50.715V35.4668H51.0837V35.7916H50.2727V35.272H50.2628C50.1907 35.4886 50.1014 35.6483 49.995 35.751C49.8885 35.8538 49.7509 35.9051 49.5822 35.9051C49.348 35.9051 49.1741 35.811 49.06 35.6229C48.9459 35.4348 48.8893 35.161 48.8893 34.8011V32.6579H48.5331V32.3331H49.3316V34.9227C49.3316 35.142 49.3624 35.2996 49.4238 35.3956C49.4851 35.4918 49.5731 35.5398 49.6881 35.5398C49.7684 35.5398 49.8441 35.5148 49.9154 35.4647C49.9866 35.4147 50.0488 35.3327 50.1022 35.2191C50.1554 35.1054 50.1969 34.9567 50.2275 34.7727C50.2578 34.5888 50.2729 34.3628 50.2729 34.0948V32.6581H50.2727Z" fill="#064F94"/>
<path d="M53.3513 34.6674C53.2973 35.0759 53.1961 35.3846 53.0478 35.593C52.8997 35.8013 52.7075 35.9055 52.4716 35.9055C52.3078 35.9055 52.1608 35.8575 52.0306 35.7615C51.9003 35.6655 51.7897 35.5348 51.6989 35.3698C51.6078 35.2047 51.5379 35.0127 51.4886 34.7933C51.4395 34.5742 51.4149 34.3415 51.4149 34.0953C51.4149 33.8383 51.4406 33.5959 51.4922 33.3686C51.5437 33.1413 51.6171 32.9431 51.712 32.7741C51.8069 32.6051 51.9214 32.471 52.0549 32.3722C52.1883 32.2736 52.3371 32.2241 52.5009 32.2241C52.6171 32.2241 52.7239 32.2493 52.8214 32.2993C52.9189 32.3494 53.0028 32.4164 53.0732 32.5003C53.1436 32.5842 53.1985 32.6815 53.2379 32.7924C53.2773 32.9035 53.2969 33.0197 53.2969 33.1415C53.2969 33.2281 53.2878 33.3006 53.2697 33.3587C53.2519 33.417 53.2293 33.4635 53.2024 33.4986C53.1752 33.5339 53.1453 33.5595 53.1126 33.5757C53.0799 33.592 53.0487 33.6 53.0192 33.6C52.9389 33.6 52.8754 33.558 52.8287 33.4743C52.782 33.3906 52.7587 33.2903 52.7587 33.1738C52.7587 33.1034 52.7695 33.0277 52.7906 32.9465C52.8117 32.8654 52.8446 32.7896 52.8887 32.7192C52.833 32.6462 52.7688 32.597 52.6959 32.5711C52.6229 32.5453 52.5562 32.5326 52.4955 32.5326C52.4186 32.5326 52.3444 32.5496 52.2731 32.5832C52.2019 32.6172 52.1388 32.6889 52.0839 32.7984C52.029 32.908 51.9851 33.0642 51.9526 33.2672C51.9199 33.4702 51.9033 33.7408 51.9033 34.0789C51.9033 34.3928 51.9184 34.6472 51.9488 34.842C51.9791 35.0368 52.0209 35.189 52.074 35.2987C52.1272 35.4083 52.1901 35.4828 52.2622 35.5219C52.3341 35.5611 52.4128 35.5807 52.4981 35.5807C52.5749 35.5807 52.6479 35.563 52.7168 35.528C52.7856 35.4927 52.8483 35.4367 52.9047 35.3594C52.9613 35.2824 53.0112 35.1808 53.0547 35.0549C53.098 34.9291 53.1328 34.7742 53.1589 34.5901C53.1916 34.5955 53.2245 34.605 53.2572 34.6185C53.29 34.6321 53.322 34.6485 53.3513 34.6674Z" fill="#064F94"/>
<path d="M55.8111 35.7916C55.7425 35.8134 55.6785 35.8267 55.6194 35.8321C55.5606 35.8375 55.5139 35.8403 55.4794 35.8403C55.3927 35.8403 55.321 35.8289 55.2644 35.8058C55.2078 35.783 55.1632 35.7497 55.1305 35.7064C55.0978 35.6631 55.0739 35.6104 55.0593 35.5482C55.0446 35.486 55.0356 35.4169 55.0324 35.3411H55.0199C54.974 35.4466 54.925 35.5359 54.8724 35.6091C54.8199 35.6821 54.765 35.7404 54.7076 35.7837C54.6503 35.8269 54.5918 35.8581 54.5321 35.8771C54.4723 35.896 54.412 35.9055 54.3513 35.9055C54.2515 35.9055 54.1621 35.8831 54.0836 35.8386C54.005 35.794 53.9387 35.7309 53.8845 35.6498C53.8304 35.5686 53.7895 35.472 53.7618 35.3596C53.7338 35.2475 53.72 35.1235 53.72 34.9881C53.72 34.6121 53.8319 34.3258 54.0556 34.1297C54.2792 33.9336 54.6015 33.8288 55.0225 33.8152C55.024 33.6934 55.0253 33.5839 55.0261 33.4863C55.027 33.3891 55.0274 33.2931 55.0274 33.1981C55.0274 32.9519 54.9966 32.7795 54.9353 32.6807C54.874 32.5821 54.7769 32.5326 54.6441 32.5326C54.5556 32.5326 54.4766 32.5487 54.4067 32.5812C54.3371 32.6137 54.2801 32.657 54.236 32.7112C54.2754 32.7737 54.3042 32.8391 54.3231 32.9082C54.3421 32.9773 54.3513 33.0455 54.3513 33.1131C54.3513 33.2268 54.3292 33.3215 54.285 33.3972C54.2407 33.473 54.1802 33.5109 54.1032 33.5109C54.0704 33.5109 54.0384 33.5027 54.0074 33.4866C53.9762 33.4704 53.949 33.4448 53.9262 33.4095C53.9034 33.3742 53.8849 33.3303 53.8709 33.2776C53.8571 33.2246 53.85 33.1633 53.85 33.0929C53.85 32.982 53.8683 32.8744 53.9053 32.7702C53.9421 32.666 53.997 32.5733 54.07 32.4921C54.143 32.411 54.2338 32.346 54.3429 32.2973C54.4519 32.2485 54.5793 32.2241 54.7248 32.2241C54.8427 32.2241 54.9471 32.2431 55.0382 32.281C55.129 32.3188 55.2059 32.3819 55.2691 32.4697C55.332 32.5578 55.3798 32.6747 55.4116 32.8208C55.4435 32.967 55.4596 33.1482 55.4596 33.3647C55.4596 33.4188 55.4592 33.5074 55.4583 33.6306C55.4575 33.7537 55.4562 33.8897 55.4545 34.0385C55.4527 34.1872 55.4515 34.3383 55.4508 34.4911C55.45 34.6439 55.4495 34.7787 55.4495 34.8949C55.4495 35.014 55.451 35.1134 55.4543 35.1933C55.4577 35.2731 55.4659 35.3368 55.4788 35.3842C55.4919 35.4315 55.5115 35.4653 55.5378 35.4856C55.5638 35.5058 55.6008 35.5161 55.6484 35.5161C55.6891 35.5161 55.7433 35.5079 55.8105 35.4918V35.7916H55.8111ZM55.0225 34.1194C54.8438 34.1276 54.6996 34.15 54.5898 34.1865C54.48 34.2229 54.395 34.2746 54.3343 34.3407C54.2736 34.407 54.2325 34.4875 54.2114 34.5822C54.1901 34.6769 54.1796 34.7851 54.1796 34.907C54.1796 35.1179 54.2063 35.2757 54.2594 35.3799C54.3126 35.4841 54.386 35.5361 54.4792 35.5361C54.53 35.5361 54.587 35.5185 54.6501 35.4834C54.7132 35.4483 54.7724 35.3906 54.8281 35.3108C54.8839 35.2309 54.9301 35.1261 54.9672 34.9963C55.004 34.8665 55.0225 34.7055 55.0225 34.5133V34.1194Z" fill="#064F94"/>
<path d="M57.6197 34.9799C57.5753 35.2966 57.5023 35.5299 57.4008 35.6801C57.2992 35.8304 57.1592 35.9053 56.9806 35.9053C56.8872 35.9053 56.8034 35.8863 56.7288 35.8485C56.6541 35.8106 56.5906 35.7503 56.5383 35.6679C56.486 35.5854 56.4457 35.4797 56.4177 35.3512C56.39 35.2227 56.3762 35.0665 56.3762 34.8824V32.6581H56.0075V32.3333H56.3762V31.5459L56.8185 31.4241V32.3333H57.4574V32.6581H56.8185V34.9718C56.8185 35.0828 56.8245 35.1735 56.8368 35.2436C56.8493 35.314 56.8669 35.3693 56.8898 35.41C56.9126 35.4505 56.9395 35.4782 56.9709 35.4931C57.0019 35.5079 57.0372 35.5155 57.0764 35.5155C57.1289 35.5155 57.1739 35.5026 57.2115 35.477C57.2492 35.4513 57.2824 35.4119 57.3112 35.3592C57.3398 35.3065 57.3644 35.2408 57.3848 35.1623C57.4055 35.0837 57.4246 34.9931 57.4427 34.8902C57.4739 34.8984 57.5041 34.9091 57.5336 34.9227C57.5633 34.9367 57.5919 34.9554 57.6197 34.9799Z" fill="#064F94"/>
<path d="M58.6516 35.4668H59.0201V35.7917H57.8408V35.4668H58.2093V32.6581H57.8408V32.3333H58.6519V35.4668H58.6516ZM58.4304 31.1886C58.388 31.1886 58.349 31.1772 58.3137 31.1542C58.2786 31.1313 58.2474 31.098 58.2203 31.0547C58.1932 31.0115 58.1723 30.9607 58.1577 30.9023C58.143 30.8442 58.1355 30.7786 58.1355 30.7054C58.1355 30.635 58.1432 30.5702 58.1587 30.5106C58.1742 30.451 58.1951 30.3995 58.2214 30.3562C58.2474 30.313 58.2788 30.2792 58.3148 30.2546C58.3507 30.2303 58.3895 30.2183 58.4302 30.2183C58.471 30.2183 58.5096 30.2299 58.5457 30.2527C58.5817 30.2757 58.6131 30.3089 58.6402 30.3521C58.6674 30.3956 58.6882 30.4462 58.7029 30.5045C58.7175 30.5629 58.725 30.6283 58.725 30.7015C58.725 30.7747 58.7173 30.8408 58.7018 30.9004C58.6863 30.96 58.6654 31.0108 58.6392 31.0526C58.6129 31.0945 58.5817 31.1277 58.5457 31.152C58.5098 31.1765 58.4713 31.1886 58.4304 31.1886Z" fill="#064F94"/>
<path d="M59.3522 34.0951C59.3522 33.8407 59.3763 33.5998 59.4245 33.3725C59.4729 33.1452 59.5437 32.9463 59.6371 32.7758C59.7306 32.6054 59.8446 32.4708 59.9798 32.372C60.115 32.2734 60.2687 32.2239 60.4407 32.2239C60.6111 32.2239 60.7618 32.2722 60.8929 32.3682C61.024 32.4642 61.1338 32.5948 61.2222 32.7597C61.3105 32.9248 61.3774 33.117 61.4224 33.3361C61.4676 33.5552 61.49 33.7881 61.49 34.0342C61.49 34.2886 61.4659 34.5294 61.4174 34.7567C61.369 34.984 61.2982 35.1829 61.205 35.3534C61.1118 35.5239 60.9973 35.6584 60.8621 35.7572C60.7269 35.8558 60.5733 35.9053 60.4013 35.9053C60.231 35.9053 60.0803 35.8573 59.949 35.7613C59.8182 35.6653 59.7084 35.5346 59.6199 35.3696C59.5315 35.2045 59.4645 35.0125 59.4195 34.7931C59.3748 34.574 59.3522 34.3413 59.3522 34.0951ZM59.8386 34.0787C59.8386 34.3738 59.8511 34.6186 59.8756 34.8134C59.9 35.0082 59.9361 35.1638 59.9837 35.2802C60.0313 35.3967 60.0909 35.4785 60.163 35.5258C60.2351 35.5732 60.3195 35.5969 60.4161 35.5969C60.5111 35.5969 60.5956 35.5725 60.6693 35.5239C60.7431 35.4752 60.8044 35.3919 60.8535 35.2742C60.9026 35.1565 60.9398 34.9982 60.9654 34.7991C60.9908 34.6003 61.0035 34.3508 61.0035 34.0503C61.0035 33.7554 60.9913 33.5105 60.9667 33.3155C60.9422 33.1207 60.906 32.965 60.8585 32.8488C60.8109 32.7326 60.7508 32.6506 60.6779 32.6032C60.6049 32.5558 60.5209 32.5322 60.426 32.5322C60.3294 32.5322 60.2446 32.5565 60.1716 32.6051C60.0986 32.6538 60.0377 32.7371 59.9884 32.8548C59.9391 32.9726 59.9021 33.1308 59.8765 33.3299C59.8513 33.5288 59.8386 33.7785 59.8386 34.0787Z" fill="#064F94"/>
<path d="M62.6444 35.4668H62.9761V35.7917H61.8334V35.4668H62.2019V32.6581H61.8334V32.3333H62.6444V32.9218H62.6541C62.7215 32.6973 62.8112 32.5246 62.9245 32.4043C63.0375 32.284 63.1832 32.2237 63.3618 32.2237C63.5863 32.2237 63.7532 32.3191 63.8631 32.51C63.9729 32.7007 64.0278 32.9734 64.0278 33.3279V35.4671H64.384V35.7919H63.2538V35.4671H63.5855V33.2143C63.5855 33.0006 63.5549 32.8428 63.4944 32.7414C63.4339 32.6398 63.3487 32.589 63.2387 32.589C63.1552 32.589 63.0775 32.6181 63.0054 32.6764C62.9333 32.7347 62.8706 32.8245 62.8175 32.9463C62.7641 33.0681 62.7221 33.2238 62.6909 33.413C62.6597 33.6024 62.6442 33.8271 62.6442 34.0867L62.6444 35.4668Z" fill="#064F94"/>
<path d="M66.7824 35.7916C66.7137 35.8134 66.6498 35.8267 66.5906 35.8321C66.5319 35.8375 66.4852 35.8403 66.4507 35.8403C66.364 35.8403 66.2923 35.8289 66.2357 35.8058C66.1791 35.783 66.1345 35.7497 66.1018 35.7064C66.0691 35.6631 66.0452 35.6104 66.0306 35.5482C66.0159 35.486 66.0069 35.4169 66.0036 35.3411H65.9912C65.9453 35.4466 65.8962 35.5359 65.8437 35.6091C65.7912 35.6821 65.7363 35.7404 65.6788 35.7837C65.6216 35.8269 65.563 35.8581 65.5034 35.8771C65.4436 35.896 65.3833 35.9055 65.3226 35.9055C65.2227 35.9055 65.1334 35.8831 65.0548 35.8386C64.9763 35.794 64.91 35.7309 64.8557 35.6498C64.8017 35.5686 64.7608 35.472 64.733 35.3596C64.7051 35.2475 64.6913 35.1235 64.6913 34.9881C64.6913 34.6121 64.8032 34.3258 65.0269 34.1297C65.2505 33.9336 65.5727 33.8288 65.9937 33.8152C65.9952 33.6934 65.9965 33.5839 65.9974 33.4863C65.9983 33.3891 65.9987 33.2931 65.9987 33.1981C65.9987 32.9519 65.9679 32.7795 65.9066 32.6807C65.8452 32.5821 65.7481 32.5326 65.6153 32.5326C65.5269 32.5326 65.4479 32.5487 65.3779 32.5812C65.3084 32.6137 65.2514 32.657 65.2072 32.7112C65.2466 32.7737 65.2755 32.8391 65.2944 32.9082C65.3133 32.9773 65.3226 33.0455 65.3226 33.1131C65.3226 33.2268 65.3004 33.3215 65.2563 33.3972C65.212 33.473 65.1515 33.5109 65.0744 33.5109C65.0417 33.5109 65.0096 33.5027 64.9786 33.4866C64.9474 33.4704 64.9203 33.4448 64.8975 33.4095C64.8747 33.3742 64.8562 33.3303 64.8422 33.2776C64.8284 33.2246 64.8213 33.1633 64.8213 33.0929C64.8213 32.982 64.8396 32.8744 64.8766 32.7702C64.9134 32.666 64.9683 32.5733 65.0413 32.4921C65.1142 32.411 65.2051 32.346 65.3142 32.2973C65.4231 32.2485 65.5505 32.2241 65.6961 32.2241C65.814 32.2241 65.9184 32.2431 66.0095 32.281C66.1003 32.3188 66.1771 32.3819 66.2404 32.4697C66.3033 32.5578 66.3511 32.6747 66.3829 32.8208C66.4148 32.967 66.4309 33.1482 66.4309 33.3647C66.4309 33.4188 66.4305 33.5074 66.4296 33.6306C66.4288 33.7537 66.4275 33.8897 66.4257 34.0385C66.424 34.1872 66.4227 34.3383 66.4221 34.4911C66.4212 34.6439 66.4208 34.7787 66.4208 34.8949C66.4208 35.014 66.4223 35.1134 66.4255 35.1933C66.429 35.2731 66.4372 35.3368 66.4501 35.3842C66.4632 35.4315 66.4828 35.4653 66.509 35.4856C66.5351 35.5058 66.5721 35.5161 66.6197 35.5161C66.6604 35.5161 66.7146 35.5079 66.7818 35.4918V35.7916H66.7824ZM65.9937 34.1194C65.8151 34.1276 65.6709 34.15 65.5611 34.1865C65.4513 34.2229 65.3663 34.2746 65.3056 34.3407C65.2449 34.407 65.2038 34.4875 65.1827 34.5822C65.1614 34.6769 65.1508 34.7851 65.1508 34.907C65.1508 35.1179 65.1775 35.2757 65.2307 35.3799C65.2839 35.4841 65.3573 35.5361 65.4505 35.5361C65.5013 35.5361 65.5583 35.5185 65.6214 35.4834C65.6844 35.4483 65.7436 35.3906 65.7994 35.3108C65.8551 35.2309 65.9014 35.1261 65.9384 34.9963C65.9752 34.8665 65.9937 34.7055 65.9937 34.5133V34.1194Z" fill="#064F94"/>
<path d="M67.8265 35.4668H68.1952V35.7916H67.0157V35.4668H67.3844V30.2185H67.0157V29.8937H67.8267V35.4668H67.8265Z" fill="#064F94"/>
<path d="M70.7506 30.2187V32.6906H71.0726C71.1824 32.6906 71.2741 32.6839 71.3477 32.6703C71.4213 32.6568 71.4807 32.6176 71.5257 32.5526C71.5709 32.4876 71.6047 32.3869 71.628 32.2502C71.6508 32.1135 71.6673 31.9206 71.677 31.6716H71.8516V34.1153H71.677C71.6688 33.8637 71.6549 33.6654 71.6355 33.5206C71.6157 33.3759 71.5838 33.2661 71.5397 33.1917C71.4954 33.1174 71.4362 33.0707 71.3615 33.0518C71.2868 33.0328 71.1908 33.0233 71.0728 33.0233H70.7508V35.4668H71.2668V35.7916H69.7803V35.4668H70.2717V30.2185H69.7803V29.8937H72.5176L72.5716 31.6025H72.3996C72.3783 31.3102 72.3497 31.0741 72.3137 30.8941C72.2776 30.7142 72.2266 30.5743 72.16 30.474C72.0937 30.3739 72.0079 30.3063 71.9022 30.271C71.7965 30.2359 71.6643 30.2183 71.5053 30.2183H70.7506V30.2187Z" fill="#064F94"/>
<path d="M72.6579 34.0951C72.6579 33.8407 72.682 33.5998 72.7303 33.3725C72.7787 33.1452 72.8495 32.9463 72.9429 32.7758C73.0363 32.6054 73.1504 32.4708 73.2856 32.372C73.4208 32.2734 73.5745 32.2239 73.7464 32.2239C73.9169 32.2239 74.0676 32.2722 74.1987 32.3682C74.3297 32.4642 74.4395 32.5948 74.528 32.7597C74.6162 32.9248 74.6832 33.117 74.7282 33.3361C74.7734 33.5552 74.7958 33.7881 74.7958 34.0342C74.7958 34.2886 74.7717 34.5294 74.7232 34.7567C74.6748 34.984 74.604 35.1829 74.5108 35.3534C74.4176 35.5239 74.3031 35.6584 74.1679 35.7572C74.0327 35.8558 73.879 35.9053 73.707 35.9053C73.5368 35.9053 73.3861 35.8573 73.2548 35.7613C73.1239 35.6653 73.0142 35.5346 72.9257 35.3696C72.8372 35.2045 72.7703 35.0125 72.7253 34.7931C72.6803 34.574 72.6579 34.3413 72.6579 34.0951ZM73.1442 34.0787C73.1442 34.3738 73.1567 34.6186 73.1812 34.8134C73.2055 35.0082 73.2417 35.1638 73.2892 35.2802C73.3368 35.3967 73.3964 35.4785 73.4685 35.5258C73.5407 35.5732 73.625 35.5969 73.7217 35.5969C73.8166 35.5969 73.9012 35.5725 73.9748 35.5239C74.0486 35.4752 74.11 35.3919 74.1591 35.2742C74.2081 35.1565 74.2454 34.9982 74.271 34.7991C74.2964 34.6003 74.3091 34.3508 74.3091 34.0503C74.3091 33.7554 74.2968 33.5105 74.2723 33.3155C74.2477 33.1207 74.2116 32.965 74.164 32.8488C74.1164 32.7326 74.0564 32.6506 73.9834 32.6032C73.9104 32.5558 73.8265 32.5322 73.7316 32.5322C73.6349 32.5322 73.5501 32.5565 73.4772 32.6051C73.4042 32.6538 73.3433 32.7371 73.294 32.8548C73.2447 32.9726 73.2077 33.1308 73.1821 33.3299C73.1569 33.5288 73.1442 33.7785 73.1442 34.0787Z" fill="#064F94"/>
<path d="M76.8422 32.6581H76.486V32.3333H77.2845V35.4668H77.6532V35.7916H76.8422V35.272H76.8323C76.7602 35.4886 76.6709 35.6483 76.5645 35.751C76.458 35.8538 76.3204 35.9051 76.1517 35.9051C75.9175 35.9051 75.7436 35.811 75.6295 35.6229C75.5154 35.4348 75.4588 35.161 75.4588 34.8011V32.6579H75.1026V32.3331H75.9011V34.9227C75.9011 35.142 75.9319 35.2996 75.9933 35.3956C76.0546 35.4918 76.1426 35.5398 76.2576 35.5398C76.3379 35.5398 76.4136 35.5148 76.4849 35.4647C76.5561 35.4147 76.6183 35.3327 76.6717 35.2191C76.7249 35.1054 76.7664 34.9567 76.797 34.7727C76.8273 34.5888 76.8424 34.3628 76.8424 34.0948L76.8422 32.6581Z" fill="#064F94"/>
<path d="M78.7219 35.4668H79.0536V35.7917H77.9109V35.4668H78.2794V32.6581H77.9109V32.3333H78.7219V32.9218H78.7316C78.799 32.6973 78.8887 32.5246 79.002 32.4043C79.115 32.284 79.2607 32.2237 79.4393 32.2237C79.6638 32.2237 79.8307 32.3191 79.9406 32.51C80.0504 32.7007 80.1053 32.9734 80.1053 33.3279V35.4671H80.4615V35.7919H79.3313V35.4671H79.663V33.2143C79.663 33.0006 79.6324 32.8428 79.5719 32.7414C79.5114 32.6398 79.4262 32.589 79.3162 32.589C79.2327 32.589 79.155 32.6181 79.0829 32.6764C79.0108 32.7347 78.9481 32.8245 78.895 32.9463C78.8416 33.0681 78.7996 33.2238 78.7684 33.413C78.7372 33.6024 78.7217 33.8271 78.7217 34.0867V35.4668H78.7219Z" fill="#064F94"/>
<path d="M82.8674 35.4668H83.2361V35.7916H82.425V35.3004H82.4151C82.3727 35.4169 82.3262 35.5135 82.2763 35.5906C82.2264 35.6677 82.1734 35.7301 82.1179 35.7774C82.0623 35.8248 82.004 35.8579 81.9433 35.8769C81.8826 35.8958 81.8213 35.9053 81.7591 35.9053C81.6034 35.9053 81.465 35.8573 81.3438 35.7613C81.2227 35.6653 81.1202 35.5355 81.0365 35.3717C80.953 35.2079 80.8895 35.0165 80.846 34.7974C80.8027 34.5781 80.781 34.3443 80.781 34.0953C80.781 33.8355 80.8047 33.5914 80.8522 33.3626C80.8998 33.1338 80.9672 32.9357 81.0548 32.7679C81.1424 32.6 81.2474 32.4674 81.3692 32.3701C81.4913 32.2726 81.6269 32.2239 81.7761 32.2239C81.9203 32.2239 82.0464 32.2734 82.1545 32.372C82.2627 32.4708 82.3495 32.6094 82.4149 32.7881H82.4248V30.2187H82.0318V29.8939H82.8671V35.4668H82.8674ZM81.2679 34.0707C81.2679 34.3792 81.281 34.6315 81.3072 34.8278C81.3335 35.0241 81.3703 35.1782 81.4179 35.2903C81.4655 35.4027 81.5223 35.4797 81.5888 35.5217C81.6551 35.5637 81.7276 35.5846 81.8062 35.5846C81.9306 35.5846 82.0328 35.54 82.1123 35.4507C82.1917 35.3614 82.2548 35.2436 82.3015 35.0975C82.3482 34.9513 82.3805 34.7856 82.3983 34.6002C82.4164 34.4149 82.4255 34.2261 82.4255 34.0339C82.4255 33.758 82.4104 33.5244 82.38 33.3337C82.3497 33.143 82.3075 32.9893 82.2535 32.8731C82.1994 32.7569 82.1351 32.6729 82.0606 32.6215C81.9859 32.5703 81.9046 32.5444 81.8161 32.5444C81.7375 32.5444 81.6646 32.5647 81.5974 32.6053C81.53 32.6458 81.4719 32.7224 81.4228 32.8346C81.3735 32.9469 81.3357 33.1019 81.3085 33.2993C81.2812 33.4971 81.2679 33.7539 81.2679 34.0707Z" fill="#064F94"/>
<path d="M85.6463 35.7916C85.5777 35.8134 85.5137 35.8267 85.4545 35.8321C85.3958 35.8375 85.3491 35.8403 85.3146 35.8403C85.2279 35.8403 85.1562 35.8289 85.0996 35.8058C85.043 35.783 84.9984 35.7497 84.9657 35.7064C84.933 35.6631 84.9091 35.6104 84.8945 35.5482C84.8798 35.486 84.8708 35.4169 84.8676 35.3411H84.8551C84.8092 35.4466 84.7602 35.5359 84.7076 35.6091C84.6551 35.6821 84.6002 35.7404 84.5428 35.7837C84.4855 35.8269 84.427 35.8581 84.3673 35.8771C84.3075 35.896 84.2472 35.9055 84.1865 35.9055C84.0867 35.9055 83.9973 35.8831 83.9188 35.8386C83.8402 35.794 83.7739 35.7309 83.7197 35.6498C83.6656 35.5686 83.6247 35.472 83.597 35.3596C83.569 35.2475 83.5552 35.1235 83.5552 34.9881C83.5552 34.6121 83.6671 34.3258 83.8908 34.1297C84.1144 33.9336 84.4366 33.8288 84.8577 33.8152C84.8592 33.6934 84.8605 33.5839 84.8613 33.4863C84.8622 33.3891 84.8626 33.2931 84.8626 33.1981C84.8626 32.9519 84.8318 32.7795 84.7705 32.6807C84.7091 32.5821 84.6121 32.5326 84.4793 32.5326C84.3908 32.5326 84.3118 32.5487 84.2418 32.5812C84.1723 32.6137 84.1153 32.657 84.0712 32.7112C84.1105 32.7737 84.1394 32.8391 84.1583 32.9082C84.1773 32.9773 84.1865 33.0455 84.1865 33.1131C84.1865 33.2268 84.1644 33.3215 84.1202 33.3972C84.0759 33.473 84.0154 33.5109 83.9383 33.5109C83.9056 33.5109 83.8736 33.5027 83.8426 33.4866C83.8114 33.4704 83.7842 33.4448 83.7614 33.4095C83.7386 33.3742 83.7201 33.3303 83.7061 33.2776C83.6923 33.2246 83.6852 33.1633 83.6852 33.0929C83.6852 32.982 83.7035 32.8744 83.7405 32.7702C83.7773 32.666 83.8322 32.5733 83.9052 32.4921C83.9782 32.411 84.069 32.346 84.1781 32.2973C84.287 32.2485 84.4145 32.2241 84.56 32.2241C84.6779 32.2241 84.7823 32.2431 84.8734 32.281C84.9642 32.3188 85.0411 32.3819 85.1043 32.4697C85.1672 32.5578 85.215 32.6747 85.2468 32.8208C85.2787 32.967 85.2948 33.1482 85.2948 33.3647C85.2948 33.4188 85.2944 33.5074 85.2935 33.6306C85.2927 33.7537 85.2914 33.8897 85.2897 34.0385C85.2879 34.1872 85.2867 34.3383 85.286 34.4911C85.2851 34.6439 85.2847 34.7787 85.2847 34.8949C85.2847 35.014 85.2862 35.1134 85.2894 35.1933C85.2929 35.2731 85.3011 35.3368 85.314 35.3842C85.3271 35.4315 85.3467 35.4653 85.373 35.4856C85.399 35.5058 85.436 35.5161 85.4836 35.5161C85.5243 35.5161 85.5785 35.5079 85.6457 35.4918V35.7916H85.6463ZM84.8577 34.1194C84.679 34.1276 84.5348 34.15 84.425 34.1865C84.3152 34.2229 84.2302 34.2746 84.1695 34.3407C84.1088 34.407 84.0677 34.4875 84.0466 34.5822C84.0253 34.6769 84.0148 34.7851 84.0148 34.907C84.0148 35.1179 84.0415 35.2757 84.0946 35.3799C84.1478 35.4841 84.2212 35.5361 84.3144 35.5361C84.3652 35.5361 84.4222 35.5185 84.4853 35.4834C84.5484 35.4483 84.6075 35.3906 84.6633 35.3108C84.719 35.2309 84.7653 35.1261 84.8023 34.9963C84.8392 34.8665 84.8577 34.7055 84.8577 34.5133V34.1194Z" fill="#064F94"/>
<path d="M87.4552 34.9799C87.4109 35.2966 87.3379 35.5299 87.2363 35.6801C87.1347 35.8304 86.9948 35.9053 86.8162 35.9053C86.7227 35.9053 86.639 35.8863 86.5643 35.8485C86.4896 35.8106 86.4261 35.7503 86.3738 35.6679C86.3215 35.5854 86.2813 35.4797 86.2533 35.3512C86.2255 35.2227 86.2117 35.0665 86.2117 34.8824V32.6581H85.843V32.3333H86.2117V31.5459L86.6541 31.4241V32.3333H87.2929V32.6581H86.6541V34.9718C86.6541 35.0828 86.6601 35.1735 86.6724 35.2436C86.6848 35.314 86.7025 35.3693 86.7253 35.41C86.7481 35.4505 86.775 35.4782 86.8065 35.4931C86.8375 35.5079 86.8728 35.5155 86.9119 35.5155C86.9645 35.5155 87.0094 35.5026 87.0471 35.477C87.0848 35.4513 87.1179 35.4119 87.1468 35.3592C87.1754 35.3065 87.1999 35.2408 87.2204 35.1623C87.241 35.0837 87.2602 34.9931 87.2783 34.8902C87.3095 34.8984 87.3396 34.9091 87.3691 34.9227C87.3986 34.9367 87.4272 34.9554 87.4552 34.9799Z" fill="#064F94"/>
<path d="M88.4873 35.4668H88.8558V35.7917H87.6764V35.4668H88.0449V32.6581H87.6764V32.3333H88.4875V35.4668H88.4873ZM88.2658 31.1886C88.2234 31.1886 88.1844 31.1772 88.1491 31.1542C88.114 31.1313 88.0828 31.098 88.0557 31.0547C88.0286 31.0115 88.0077 30.9607 87.9931 30.9023C87.9784 30.8442 87.9709 30.7786 87.9709 30.7054C87.9709 30.635 87.9786 30.5702 87.9941 30.5106C88.0096 30.451 88.0305 30.3995 88.0568 30.3562C88.0828 30.313 88.1142 30.2792 88.1502 30.2546C88.1861 30.2303 88.2249 30.2183 88.2656 30.2183C88.3064 30.2183 88.345 30.2299 88.3811 30.2527C88.4171 30.2757 88.4485 30.3089 88.4756 30.3521C88.5028 30.3956 88.5236 30.4462 88.5383 30.5045C88.5529 30.5629 88.5604 30.6283 88.5604 30.7015C88.5604 30.7747 88.5527 30.8408 88.5372 30.9004C88.5217 30.96 88.5008 31.0108 88.4746 31.0526C88.4483 31.0945 88.4171 31.1277 88.3811 31.152C88.3454 31.1765 88.3069 31.1886 88.2658 31.1886Z" fill="#064F94"/>
<path d="M89.1873 34.0951C89.1873 33.8407 89.2115 33.5998 89.2597 33.3725C89.3081 33.1452 89.3789 32.9463 89.4723 32.7758C89.5657 32.6054 89.6798 32.4708 89.815 32.372C89.9502 32.2734 90.1039 32.2239 90.2758 32.2239C90.4463 32.2239 90.597 32.2722 90.7281 32.3682C90.8592 32.4642 90.9689 32.5948 91.0574 32.7597C91.1457 32.9248 91.2126 33.117 91.2576 33.3361C91.3028 33.5552 91.3252 33.7881 91.3252 34.0342C91.3252 34.2886 91.3011 34.5294 91.2526 34.7567C91.2042 34.984 91.1334 35.1829 91.0402 35.3534C90.947 35.5239 90.8325 35.6584 90.6973 35.7572C90.5621 35.8558 90.4084 35.9053 90.2365 35.9053C90.0662 35.9053 89.9155 35.8573 89.7842 35.7613C89.6534 35.6653 89.5436 35.5346 89.4551 35.3696C89.3666 35.2045 89.2997 35.0125 89.2547 34.7931C89.2097 34.574 89.1873 34.3413 89.1873 34.0951ZM89.6736 34.0787C89.6736 34.3738 89.6861 34.6186 89.7106 34.8134C89.7349 35.0082 89.7711 35.1638 89.8187 35.2802C89.8662 35.3967 89.9259 35.4785 89.998 35.5258C90.0701 35.5732 90.1544 35.5969 90.2511 35.5969C90.346 35.5969 90.4306 35.5725 90.5042 35.5239C90.5781 35.4752 90.6394 35.3919 90.6885 35.2742C90.7376 35.1565 90.7748 34.9982 90.8004 34.7991C90.8258 34.6003 90.8385 34.3508 90.8385 34.0503C90.8385 33.7554 90.8262 33.5105 90.8017 33.3155C90.7772 33.1207 90.741 32.965 90.6934 32.8488C90.6459 32.7326 90.5858 32.6506 90.5128 32.6032C90.4399 32.5558 90.3559 32.5322 90.261 32.5322C90.1643 32.5322 90.0795 32.5565 90.0066 32.6051C89.9336 32.6538 89.8727 32.7371 89.8234 32.8548C89.7741 32.9726 89.7371 33.1308 89.7115 33.3299C89.6863 33.5288 89.6736 33.7785 89.6736 34.0787Z" fill="#064F94"/>
<path d="M92.4801 35.4668H92.8117V35.7917H91.669V35.4668H92.0375V32.6581H91.669V32.3333H92.4801V32.9218H92.4897C92.5571 32.6973 92.6469 32.5246 92.7601 32.4043C92.8731 32.284 93.0188 32.2237 93.1975 32.2237C93.422 32.2237 93.5888 32.3191 93.6988 32.51C93.8086 32.7007 93.8634 32.9734 93.8634 33.3279V35.4671H94.2197V35.7919H93.0894V35.4671H93.4211V33.2143C93.4211 33.0006 93.3906 32.8428 93.3301 32.7414C93.2696 32.6398 93.1843 32.589 93.0743 32.589C92.9908 32.589 92.9131 32.6181 92.841 32.6764C92.7689 32.7347 92.7063 32.8245 92.6531 32.9463C92.5997 33.0681 92.5578 33.2238 92.5266 33.413C92.4953 33.6024 92.4798 33.8271 92.4798 34.0867V35.4668H92.4801Z" fill="#064F94"/>
</svg>
