<svg width="223" height="105" viewBox="0 0 223 105" fill="none" xmlns="http://www.w3.org/2000/svg">
<path d="M45.9501 62.0261C45.0518 59.5654 43.8699 57.4942 42.4037 55.8123C40.9375 54.1309 39.273 52.732 37.4108 51.6165C35.5481 50.5011 33.6524 49.4482 31.7243 48.4562C29.6102 47.3939 27.675 46.3764 25.9187 45.4022C24.1615 44.429 22.6552 43.3135 21.4009 42.0563C20.1461 40.8001 19.1747 39.3037 18.4882 37.5682C17.8007 35.8336 17.458 33.6563 17.458 31.0356C17.458 28.8405 17.7023 26.8662 18.1911 25.1137C18.6798 23.3607 19.4129 21.8737 20.3904 20.6523C21.3674 19.4305 22.5964 18.493 24.0758 17.8371C25.5552 17.1822 27.2988 16.8545 29.3065 16.8545C30.8123 16.8545 32.2851 17.1115 33.7254 17.6248C35.1653 18.1385 36.4728 19.0769 37.6486 20.44C38.8238 21.8036 39.8211 23.6889 40.6404 26.0963C41.4587 28.5047 41.9875 31.6199 42.2252 35.4442H44.9995L44.5239 16.1647C43.4141 15.6335 42.2384 15.1471 40.9968 14.7041C39.7547 14.2619 38.4937 13.881 37.2126 13.5623C35.9304 13.2435 34.6426 13.0043 33.3487 12.8452C32.0539 12.686 30.7991 12.606 29.5843 12.606C26.519 12.606 23.8314 13.1371 21.52 14.1993C19.2076 15.2616 17.2724 16.7579 15.7144 18.687C14.1549 20.6175 12.9797 22.9449 12.1877 25.6712C11.3948 28.3983 10.9988 31.4076 10.9988 34.7002C10.9988 38.2057 11.415 41.1358 12.247 43.4901C13.0795 45.8453 14.2086 47.837 15.6353 49.4652C17.0615 51.0939 18.7062 52.4575 20.5689 53.555C22.4316 54.653 24.3931 55.6974 26.4536 56.6885C28.5145 57.6801 30.4031 58.6365 32.1203 59.5565C33.8041 60.4591 35.2491 61.5261 36.463 62.7512H46.1912C46.1135 62.5059 46.0354 62.2606 45.9501 62.0261Z" fill="#F0F2FF"/>
<path d="M37.529 85.1299C36.512 86.4577 35.2171 87.4936 33.6454 88.237C32.0733 88.9805 30.1785 89.3525 27.959 89.3525C26.1094 89.3525 24.3588 89.0252 22.7085 88.3698C21.0572 87.7149 19.591 86.5905 18.3098 84.9971C17.3653 83.8228 16.5337 82.3486 15.8119 80.5791H10.859L11.078 89.5116C12.24 90.1138 13.4953 90.645 14.8424 91.105C16.1895 91.5655 17.5701 91.9723 18.9836 92.3264C20.3966 92.68 21.8228 92.9456 23.2636 93.1231C24.7035 93.2996 26.0972 93.3886 27.4443 93.3886C30.535 93.3886 33.3092 92.8924 35.7661 91.9017C38.2235 90.911 40.3037 89.4768 42.0078 87.5995C43.7118 85.7232 45.0193 83.4037 45.9309 80.6422C45.938 80.6215 45.9431 80.5998 45.9502 80.5791H39.6813C39.2151 82.3368 38.5023 83.8586 37.529 85.1299Z" fill="#F0F2FF"/>
<path d="M65.2099 53.4491C65.2099 48.4924 65.4147 44.146 65.8244 40.4103C66.2335 36.675 66.8085 33.4445 67.5482 30.7173C68.2874 27.9911 69.1928 25.7432 70.2626 23.9723C71.3324 22.2024 72.5345 20.7856 73.8689 19.7234C75.2028 18.6611 76.6488 17.9177 78.2083 17.4929C79.7668 17.0678 81.418 16.8554 83.1621 16.8554C84.8788 16.8554 86.5037 17.1036 88.0363 17.5994C89.5685 18.0956 90.9424 19.0157 92.1577 20.3609C93.3725 21.7071 94.3834 23.5924 95.1891 26.0173C95.9947 28.4431 96.5164 31.5855 96.7542 35.4447H99.5284L99.0529 16.0587C97.8376 15.5276 96.5762 15.0497 95.2686 14.625C93.9606 14.2003 92.6394 13.8373 91.3055 13.5359C89.9711 13.2355 88.6569 13.0048 87.3626 12.8456C86.0677 12.6865 84.8397 12.6064 83.6772 12.6064C79.5558 12.6064 75.8239 13.5717 72.4827 15.5012C69.1401 17.4313 66.2933 20.1933 63.9424 23.7864C61.5909 27.3804 59.7815 31.7094 58.5135 36.7725C57.2459 41.836 56.6117 47.5008 56.6117 53.7683C56.6117 56.9292 56.7746 59.9214 57.0948 62.7522H65.4976C65.3069 59.9487 65.2099 56.8529 65.2099 53.4491Z" fill="#F0F2FF"/>
<path d="M92.6523 84.9439C91.3448 86.5024 89.839 87.591 88.135 88.2102C86.431 88.8298 84.5744 89.1396 82.5672 89.1396C80.9027 89.1396 79.3178 88.9456 77.8116 88.5553C76.3058 88.1659 74.912 87.4667 73.6309 86.4572C72.3487 85.4481 71.1871 84.0855 70.1437 82.3674C69.8113 81.8202 69.4968 81.2204 69.1964 80.5786H62.3106C62.7226 81.3258 63.1502 82.0519 63.605 82.7393C65.8637 86.1568 68.6111 88.7855 71.8477 90.6261C75.0834 92.4667 78.7231 93.3877 82.7654 93.3877C84.0334 93.3877 85.4007 93.2991 86.867 93.1221C88.3332 92.9446 89.8192 92.6884 91.325 92.3523C92.8308 92.0151 94.3168 91.6088 95.7835 91.1304C97.2497 90.6525 98.6171 90.1129 99.8851 89.5107L100.121 80.5781H95.1874C94.4651 82.3344 93.6209 83.7907 92.6523 84.9439Z" fill="#F0F2FF"/>
<path d="M124.216 53.7673H129.407C131.31 53.7673 132.861 53.8916 134.064 54.1393C135.266 54.3874 136.223 54.9892 136.937 55.945C137.65 56.9008 138.165 58.3087 138.482 60.1676C138.61 60.9163 138.722 61.7812 138.82 62.7512H141.97V36.3467H139.156C138.997 39.5335 138.733 42.0031 138.363 43.7556C137.993 45.5081 137.445 46.8011 136.718 47.6326C135.992 48.465 135.034 48.9693 133.845 49.1464C132.657 49.3239 131.176 49.4119 129.407 49.4119H124.216V18.6601H136.778C139.34 18.6601 141.46 18.8819 143.138 19.324C144.816 19.7671 146.176 20.617 147.22 21.8737C148.263 23.1309 149.075 24.8659 149.657 27.0785C150.238 29.292 150.727 32.1689 151.123 35.7092H153.897L153.105 14.4116H108.563V18.6606H116.488V62.7512H124.216V53.7673H124.216Z" fill="#F0F2FF"/>
<path d="M147.22 83.4569C146.387 84.4843 145.39 85.281 144.228 85.847C143.065 86.4139 141.705 86.8028 140.146 87.0152C138.587 87.2275 136.778 87.3339 134.717 87.3339H124.216V80.5791H116.488V87.3339H108.563V91.5829H154.095L154.426 80.5791H148.928C148.424 81.7134 147.855 82.6735 147.22 83.4569Z" fill="#F0F2FF"/>
<path d="M178.466 55.3607H183.657C185.56 55.3607 187.111 55.485 188.314 55.7327C189.516 55.9808 190.473 56.5915 191.187 57.5652C191.901 58.5394 192.415 59.9736 192.733 61.8674C192.779 62.1457 192.823 62.4433 192.865 62.7517H196.22V37.675H193.406C193.247 40.9329 192.983 43.4557 192.613 45.2435C192.243 47.0318 191.695 48.3507 190.968 49.2006C190.242 50.0504 189.284 50.5641 188.095 50.7407C186.907 50.9182 185.426 51.0063 183.657 51.0063H178.466V18.6616H190.632C193.193 18.6616 195.327 18.8923 197.031 19.3518C198.735 19.8123 200.123 20.698 201.192 22.0074C202.262 23.3178 203.088 25.1499 203.669 27.5042C204.25 29.8594 204.713 32.9482 205.056 36.7724H207.83L206.958 14.4126H162.813V18.6616H170.738V62.7521H178.466L178.466 55.3607Z" fill="#F0F2FF"/>
<path d="M170.739 80.5791V87.3339H162.814V91.5829H186.788V87.3339H178.467V80.5791H170.739Z" fill="#F0F2FF"/>
<path d="M57.0936 62.7515H46.191C46.926 65.0803 47.2975 67.8894 47.2975 71.1882C47.2975 74.7026 46.8474 77.8324 45.9495 80.5793H62.3106C60.6763 77.6139 59.3735 74.188 58.4134 70.2856C57.8314 67.9205 57.394 65.4071 57.0936 62.7515Z" fill="white"/>
<path d="M13.3361 68.4799C13.6266 72.5165 14.2081 75.8807 15.0796 78.5712C15.3089 79.2793 15.5538 79.9475 15.8113 80.5798H39.6802C39.701 80.5016 39.7287 80.4301 39.7485 80.3505C40.2099 78.4916 40.4421 76.4467 40.4421 74.2163C40.4421 71.4547 40.0984 69.18 39.4118 67.3913C38.7244 65.6039 37.7672 64.0812 36.5387 62.8235C36.5147 62.7986 36.4869 62.7764 36.4624 62.752H6.33167V80.5798H10.8584L10.5618 68.4803H13.3361V68.4799Z" fill="white"/>
<path d="M141.97 62.7515V67.7891H139.156C139.076 65.8652 138.964 64.1894 138.819 62.7515H124.216V80.5793H148.928C149.085 80.2271 149.235 79.8599 149.379 79.4738C149.987 77.8456 150.502 75.8623 150.925 73.5255C151.347 71.1887 151.743 68.4266 152.113 65.2399H154.887L154.426 80.5793H170.739V62.7515H141.97Z" fill="white"/>
<path d="M65.4962 62.7515C65.581 64.0011 65.6818 65.1985 65.8042 66.3285C66.2006 69.9932 66.7614 73.1535 67.4884 75.8091C67.9833 77.6186 68.554 79.2054 69.1962 80.5793H95.1868C95.4401 79.9639 95.6788 79.3137 95.9015 78.6239C96.7599 75.9683 97.348 72.5876 97.6653 68.4798H100.439L100.12 80.5793H116.488V62.7515H65.4962Z" fill="white"/>
<path d="M193.406 69.648C193.293 66.8385 193.113 64.5431 192.866 62.7515H178.467V80.5793H210.436V62.7515H196.22V69.648H193.406Z" fill="white"/>
<path d="M46.1908 62.7515H36.4625C36.487 62.7759 36.5143 62.7986 36.5388 62.823C37.7668 64.0802 38.7245 65.6029 39.4119 67.3908C40.0984 69.1791 40.4422 71.4537 40.4422 74.2158C40.4422 76.4467 40.2105 78.4916 39.7486 80.35C39.7288 80.4291 39.701 80.5012 39.6803 80.5793H45.9492C46.8472 77.8324 47.2973 74.7031 47.2973 71.1882C47.2973 67.8894 46.9258 65.0803 46.1908 62.7515Z" fill="white"/>
<path d="M15.0798 78.5708C14.2078 75.8803 13.6268 72.5161 13.3362 68.4795H10.562L10.8586 80.579H15.8115C15.554 79.9471 15.3096 79.2794 15.0798 78.5708Z" fill="white"/>
<path d="M67.4886 75.8091C66.7616 73.1535 66.2008 69.9932 65.8043 66.3285C65.6819 65.1985 65.5811 64.0011 65.4964 62.7515H57.0936C57.3935 65.4071 57.8314 67.9205 58.4134 70.2851C59.3734 74.188 60.6763 77.6134 62.3106 80.5789H69.1964C68.5541 79.2054 67.9834 77.6186 67.4886 75.8091Z" fill="white"/>
<path d="M97.6652 68.48C97.3478 72.5877 96.7597 75.9689 95.9013 78.624C95.6786 79.3133 95.4399 79.9641 95.1866 80.5795H100.12L100.439 68.48H97.6652Z" fill="white"/>
<path d="M124.216 62.7515H116.488V80.5793H124.216V62.7515Z" fill="white"/>
<path d="M139.156 67.7891H141.969V62.7515H138.819C138.964 64.1894 139.076 65.8652 139.156 67.7891Z" fill="white"/>
<path d="M152.114 65.2397C151.744 68.4265 151.348 71.188 150.926 73.5253C150.503 75.8622 149.988 77.8454 149.381 79.4736C149.236 79.8597 149.086 80.2274 148.929 80.5792H154.427L154.889 65.2397H152.114Z" fill="white"/>
<path d="M178.467 62.7515H170.739V80.5793H178.467V62.7515Z" fill="white"/>
<path d="M193.407 69.648H196.221V62.7515H192.866C193.113 64.5431 193.293 66.8385 193.407 69.648Z" fill="white"/>
<path d="M10.5096 74.4321H10.8858C10.9253 75.1068 11.004 75.6695 11.1221 76.1191C11.2403 76.5692 11.3868 76.9271 11.5605 77.1936C11.7343 77.4601 11.933 77.648 12.1571 77.7572C12.3812 77.8669 12.6185 77.9215 12.8695 77.9215C13.1708 77.9215 13.4279 77.8594 13.6412 77.7351C13.854 77.6108 14.0297 77.4375 14.1676 77.2157C14.3056 76.9935 14.4063 76.727 14.469 76.4167C14.5316 76.1059 14.5631 75.7641 14.5631 75.3912C14.5631 74.9297 14.516 74.5493 14.4233 74.2503C14.3301 73.9513 14.2001 73.6971 14.0334 73.4866C13.8667 73.2766 13.6671 73.0944 13.4345 72.9404C13.2014 72.7864 12.9453 72.6263 12.6656 72.4606C12.3859 72.2949 12.1204 72.1202 11.8675 71.937C11.6151 71.7534 11.3919 71.5255 11.1984 71.2533C11.0049 70.9812 10.8519 70.6483 10.7384 70.2542C10.6259 69.8606 10.5694 69.3709 10.5694 68.7847C10.5694 68.2342 10.623 67.7314 10.7309 67.2751C10.8387 66.8189 10.9974 66.4304 11.2093 66.1074C11.4207 65.7849 11.6834 65.5348 11.997 65.3573C12.3106 65.1798 12.675 65.0908 13.0908 65.0908C13.2556 65.0908 13.4256 65.104 13.6012 65.1309C13.7768 65.1577 13.9515 65.1977 14.1252 65.2504C14.299 65.3037 14.4699 65.3677 14.6385 65.4416C14.807 65.5155 14.9662 65.597 15.1173 65.686L15.1818 68.909H14.8056C14.7736 68.2695 14.7016 67.7488 14.5904 67.3462C14.4793 66.9436 14.3442 66.6286 14.185 66.4007C14.0254 66.1728 13.8479 66.0161 13.6525 65.9299C13.4571 65.8437 13.2575 65.8013 13.0536 65.8013C12.781 65.8013 12.5446 65.856 12.344 65.9657C12.143 66.0754 11.9767 66.2322 11.844 66.4365C11.7112 66.6409 11.6118 66.8895 11.5454 67.1824C11.4791 67.4757 11.4461 67.8053 11.4461 68.1726C11.4461 68.6104 11.4927 68.9749 11.5859 69.2645C11.6787 69.5545 11.8105 69.8045 11.981 70.0145C12.151 70.225 12.3553 70.4115 12.5936 70.5739C12.8323 70.7368 13.0941 70.9073 13.3813 71.0843C13.6431 71.25 13.9002 71.4261 14.1525 71.6126C14.4054 71.7991 14.6314 72.0331 14.8296 72.3142C15.0288 72.5953 15.1889 72.9418 15.3108 73.3533C15.4323 73.7649 15.4935 74.2753 15.4935 74.885C15.4935 75.4769 15.4319 76.0038 15.308 76.4652C15.1842 76.9266 15.0067 77.3146 14.7755 77.6282C14.5448 77.9423 14.2623 78.1819 13.9289 78.3477C13.5955 78.5134 13.2193 78.5963 12.8003 78.5963C12.6176 78.5963 12.4288 78.5817 12.2334 78.552C12.038 78.5224 11.8444 78.4781 11.6533 78.4188C11.4616 78.3594 11.2742 78.2912 11.0915 78.2144C10.9088 78.1377 10.7384 78.0487 10.5811 77.9484L10.5096 74.4321Z" fill="#064F94"/>
<path d="M21.0882 78.2946C20.938 78.3422 20.7981 78.3714 20.6686 78.3831C20.5401 78.3949 20.4379 78.401 20.3626 78.401C20.1728 78.401 20.016 78.3761 19.8922 78.3257C19.7684 78.2758 19.6709 78.2028 19.5993 78.1082C19.5278 78.0135 19.4755 77.8982 19.4435 77.7621C19.4115 77.626 19.3917 77.4749 19.3846 77.3091H19.3573C19.257 77.5398 19.1497 77.7352 19.0348 77.8953C18.9199 78.055 18.7998 78.1826 18.6741 78.2772C18.5489 78.3718 18.4208 78.4401 18.2904 78.4815C18.1595 78.523 18.0276 78.5437 17.8949 78.5437C17.6764 78.5437 17.481 78.4947 17.3091 78.3973C17.1373 78.2998 16.9922 78.1618 16.8736 77.9843C16.7554 77.8068 16.6659 77.5954 16.6052 77.3496C16.544 77.1043 16.5138 76.8331 16.5138 76.5369C16.5138 75.7144 16.7587 75.0881 17.2479 74.6592C17.7371 74.2302 18.442 74.0009 19.363 73.9713C19.3663 73.7048 19.3691 73.4651 19.371 73.2518C19.3729 73.039 19.3738 72.829 19.3738 72.6213C19.3738 72.0827 19.3065 71.7055 19.1723 71.4894C19.0381 71.2738 18.8257 71.1654 18.5352 71.1654C18.3417 71.1654 18.1689 71.2008 18.0159 71.2719C17.8638 71.343 17.739 71.4376 17.6425 71.5563C17.7286 71.6928 17.7917 71.8359 17.8332 71.9871C17.8746 72.1382 17.8949 72.2875 17.8949 72.4353C17.8949 72.684 17.8464 72.8911 17.7498 73.0569C17.6528 73.2226 17.5205 73.3055 17.352 73.3055C17.2804 73.3055 17.2102 73.2876 17.1424 73.2523C17.0742 73.217 17.0148 73.1609 16.9649 73.0837C16.915 73.0065 16.8745 72.9104 16.8439 72.7951C16.8138 72.6792 16.7982 72.545 16.7982 72.3911C16.7982 72.1486 16.8383 71.9132 16.9193 71.6853C16.9998 71.4574 17.1198 71.2544 17.2795 71.0769C17.4391 70.8994 17.6378 70.7572 17.8765 70.6508C18.1147 70.5439 18.3935 70.4907 18.7118 70.4907C18.9698 70.4907 19.1982 70.5321 19.3973 70.615C19.596 70.6979 19.7641 70.8359 19.9026 71.028C20.0401 71.2205 20.1446 71.4762 20.2143 71.7959C20.284 72.1156 20.3193 72.5121 20.3193 72.9858C20.3193 73.1039 20.3183 73.2979 20.3164 73.5673C20.3146 73.8366 20.3117 74.1342 20.308 74.4595C20.3042 74.7849 20.3014 75.1154 20.3 75.4497C20.2981 75.784 20.2971 76.0788 20.2971 76.333C20.2971 76.5934 20.3004 76.811 20.3075 76.9857C20.315 77.1603 20.3329 77.2997 20.3612 77.4033C20.3899 77.5069 20.4327 77.5808 20.4902 77.6251C20.5472 77.6693 20.6282 77.6919 20.7322 77.6919C20.8212 77.6919 20.9399 77.674 21.0868 77.6387V78.2946H21.0882ZM19.363 74.6366C18.9722 74.6545 18.6567 74.7034 18.4166 74.7835C18.1764 74.8631 17.9904 74.976 17.8577 75.1206C17.7249 75.2656 17.6349 75.4417 17.5888 75.6489C17.5422 75.8561 17.5191 76.0929 17.5191 76.3594C17.5191 76.8209 17.5775 77.166 17.6938 77.3939C17.8101 77.6218 17.9707 77.7357 18.1745 77.7357C18.2857 77.7357 18.4104 77.6971 18.5484 77.6204C18.6864 77.5436 18.8158 77.4174 18.9378 77.2427C19.0597 77.0681 19.161 76.8387 19.242 76.5548C19.3225 76.2709 19.363 75.9187 19.363 75.4982V74.6366Z" fill="#064F94"/>
<path d="M23.3993 77.5841H24.1249V78.2946H21.6252V77.5841H22.4313V71.4399H21.6252V70.7294H23.3993V72.0167H23.4205C23.5679 71.5256 23.7642 71.148 24.0119 70.8848C24.2591 70.6216 24.5779 70.4897 24.9687 70.4897C25.4598 70.4897 25.8247 70.6983 26.0653 71.116C26.3054 71.5332 26.4255 72.1297 26.4255 72.9052V77.5845H27.2048V78.2951H24.7323V77.5845H25.4579V72.6566C25.4579 72.1891 25.391 71.8439 25.2587 71.6221C25.1264 71.3999 24.94 71.2888 24.6994 71.2888C24.5167 71.2888 24.3467 71.3523 24.189 71.4799C24.0312 71.6075 23.8942 71.8039 23.7779 72.0704C23.6611 72.3369 23.5693 72.6773 23.501 73.0912C23.4328 73.5056 23.3989 73.9971 23.3989 74.565L23.3993 77.5841Z" fill="#064F94"/>
<path d="M31.1607 76.5187C31.0637 77.2113 30.9041 77.7217 30.6819 78.0504C30.4596 78.3791 30.1536 78.5429 29.7628 78.5429C29.5584 78.5429 29.3753 78.5015 29.2119 78.4186C29.0485 78.3357 28.9096 78.2039 28.7952 78.0236C28.6808 77.8432 28.5927 77.612 28.5315 77.3309C28.4708 77.0498 28.4406 76.708 28.4406 76.3054V71.4396H27.634V70.7291H28.4406V69.0067L29.4082 68.7402V70.7291H30.8057V71.4396H29.4082V76.5008C29.4082 76.7438 29.4214 76.942 29.4482 77.0955C29.4755 77.2495 29.5142 77.3705 29.5641 77.4595C29.614 77.548 29.6728 77.6087 29.7416 77.6412C29.8094 77.6737 29.8866 77.6902 29.9723 77.6902C30.0872 77.6902 30.1856 77.6619 30.268 77.6059C30.3504 77.5499 30.4229 77.4637 30.486 77.3484C30.5486 77.233 30.6023 77.0894 30.647 76.9175C30.6922 76.7457 30.7341 76.5474 30.7737 76.3224C30.842 76.3403 30.9079 76.3638 30.9724 76.3935C31.0369 76.4241 31.0995 76.465 31.1607 76.5187Z" fill="#064F94"/>
<path d="M31.7522 74.5833C31.7522 74.0268 31.8049 73.4999 31.9104 73.0027C32.0163 72.5055 32.1712 72.0704 32.3756 71.6975C32.5799 71.3246 32.8295 71.0303 33.1252 70.8142C33.4209 70.5985 33.7571 70.4902 34.1333 70.4902C34.5062 70.4902 34.8358 70.5957 35.1225 70.8057C35.4093 71.0157 35.6494 71.3015 35.8429 71.6622C36.036 72.0233 36.1824 72.4438 36.2808 72.9231C36.3797 73.4025 36.4287 73.9119 36.4287 74.4501C36.4287 75.0066 36.3759 75.5335 36.27 76.0307C36.1641 76.528 36.0091 76.963 35.8053 77.336C35.6014 77.7089 35.3509 78.0032 35.0552 78.2193C34.7595 78.4349 34.4233 78.5432 34.0471 78.5432C33.6747 78.5432 33.3451 78.4382 33.0578 78.2282C32.7716 78.0182 32.5314 77.7324 32.3379 77.3713C32.1444 77.0101 31.998 76.5901 31.8995 76.1103C31.8011 75.631 31.7522 75.122 31.7522 74.5833ZM32.8158 74.5476C32.8158 75.1931 32.8431 75.7285 32.8968 76.1546C32.95 76.5807 33.0291 76.9211 33.1332 77.1759C33.2372 77.4306 33.3677 77.6095 33.5254 77.7131C33.6831 77.8167 33.8677 77.8685 34.0791 77.8685C34.2868 77.8685 34.4718 77.8153 34.6328 77.7089C34.7943 77.6025 34.9285 77.4202 35.0359 77.1627C35.1432 76.9051 35.2247 76.559 35.2807 76.1235C35.3363 75.6884 35.3641 75.1427 35.3641 74.4854C35.3641 73.8403 35.3372 73.3045 35.2836 72.8779C35.2299 72.4518 35.1508 72.1114 35.0467 71.8571C34.9427 71.6029 34.8113 71.4235 34.6517 71.3199C34.4921 71.2163 34.3084 71.1645 34.1008 71.1645C33.8894 71.1645 33.7038 71.2177 33.5442 71.3241C33.3846 71.4305 33.2514 71.6127 33.1435 71.8703C33.0357 72.1279 32.9547 72.4739 32.8987 72.9095C32.8436 73.3445 32.8158 73.8907 32.8158 74.5476Z" fill="#064F94"/>
<path d="M40.3574 73.2424C40.3395 72.8577 40.3009 72.5318 40.2416 72.2658C40.1828 71.9993 40.1027 71.7832 40.0024 71.6175C39.9021 71.4517 39.7811 71.3321 39.6394 71.2577C39.4977 71.1838 39.3357 71.1466 39.153 71.1466C39.0132 71.1466 38.8846 71.1687 38.766 71.2135C38.6478 71.2577 38.5456 71.326 38.4599 71.4178C38.3737 71.5096 38.3069 71.6297 38.2584 71.7775C38.2099 71.9254 38.1859 72.1034 38.1859 72.3105C38.1859 72.5177 38.2085 72.6877 38.2532 72.821C38.2979 72.9542 38.3714 73.0729 38.4736 73.176C38.5757 73.2796 38.7066 73.3789 38.8663 73.4736C39.0254 73.5682 39.2217 73.6807 39.4548 73.8112C39.6413 73.9176 39.8254 74.0301 40.0085 74.1483C40.1912 74.2669 40.3551 74.4148 40.5001 74.5923C40.6456 74.7698 40.7628 74.9845 40.8523 75.236C40.9418 75.4879 40.9865 75.7939 40.9865 76.1551C40.9865 76.5638 40.9309 76.9188 40.8198 77.2206C40.7087 77.5224 40.5618 77.771 40.3786 77.9664C40.1959 78.1618 39.9883 78.3068 39.7552 78.4015C39.5226 78.4961 39.2839 78.5437 39.0405 78.5437C38.9115 78.5437 38.7744 78.5319 38.6289 78.5084C38.4839 78.4848 38.3408 78.4519 38.1991 78.4104C38.0573 78.369 37.9231 78.32 37.796 78.264C37.6689 78.2075 37.5568 78.1501 37.4603 78.0907L37.4226 75.5156H37.7937C37.8111 75.9658 37.8497 76.3429 37.909 76.6476C37.9679 76.9522 38.0507 77.1966 38.1562 77.3802C38.2617 77.5638 38.3907 77.6943 38.5428 77.771C38.6949 77.8482 38.8733 77.8864 39.0777 77.8864C39.2316 77.8864 39.3743 77.8642 39.5052 77.82C39.6356 77.7757 39.75 77.7046 39.8466 77.6067C39.9431 77.5088 40.0194 77.3802 40.0749 77.2206C40.1305 77.061 40.1583 76.8684 40.1583 76.6433C40.1583 76.4479 40.1366 76.2869 40.0938 76.1593C40.0504 76.0317 39.9826 75.9182 39.8894 75.8175C39.7962 75.7167 39.6761 75.622 39.5287 75.5331C39.3818 75.4445 39.2062 75.3409 39.0023 75.2223C38.798 75.1041 38.6016 74.9812 38.4138 74.8541C38.2259 74.7265 38.0597 74.573 37.9161 74.3922C37.7729 74.2118 37.658 73.9943 37.5724 73.7396C37.4867 73.4849 37.4438 73.1741 37.4438 72.8073C37.4438 72.4052 37.4937 72.0572 37.594 71.7644C37.6943 71.471 37.828 71.2299 37.9947 71.0407C38.1614 70.8514 38.353 70.712 38.5701 70.6235C38.7867 70.535 39.0117 70.4902 39.2448 70.4902C39.363 70.4902 39.4868 70.5006 39.6154 70.5213C39.7444 70.542 39.8729 70.5703 39.9996 70.6056C40.1272 70.6409 40.2487 70.6809 40.365 70.7252C40.4813 70.7694 40.5882 70.8128 40.6852 70.8537L40.7224 73.2424H40.3574Z" fill="#064F94"/>
<path d="M50.9091 74.4321L50.8338 77.9484C50.6619 78.0492 50.4764 78.1391 50.2773 78.2191C50.0786 78.2987 49.877 78.367 49.6727 78.4235C49.4683 78.4795 49.2673 78.5224 49.0681 78.552C48.8694 78.5817 48.6839 78.5963 48.5116 78.5963C47.9635 78.5963 47.4696 78.4423 47.0307 78.1348C46.5914 77.8269 46.219 77.3876 45.9125 76.8165C45.6064 76.2453 45.3719 75.5508 45.2085 74.7344C45.0452 73.9179 44.9637 72.9974 44.9637 71.9728C44.9637 70.9252 45.0499 69.9783 45.2217 69.1317C45.3936 68.2851 45.6394 67.5614 45.9581 66.9606C46.2769 66.3598 46.663 65.8984 47.1164 65.5754C47.5699 65.2528 48.0756 65.0913 48.6349 65.0913C48.7927 65.0913 48.9589 65.1045 49.135 65.1313C49.3111 65.1582 49.4891 65.1968 49.6703 65.2467C49.8511 65.2971 50.0305 65.3578 50.2076 65.4289C50.3851 65.5 50.556 65.5796 50.7213 65.6686L50.7858 68.9095H50.4096C50.3776 68.2644 50.3065 67.7389 50.1972 67.3335C50.088 66.9281 49.951 66.6131 49.7862 66.388C49.6209 66.163 49.4349 66.009 49.2268 65.9261C49.0191 65.8433 48.7988 65.8018 48.5657 65.8018C48.3293 65.8018 48.1052 65.8371 47.8938 65.9082C47.6824 65.9793 47.486 66.1036 47.3052 66.2812C47.124 66.4587 46.9615 66.6955 46.816 66.9917C46.671 67.2878 46.5486 67.6636 46.4478 68.1194C46.3475 68.5751 46.2698 69.1152 46.2143 69.7396C46.1587 70.3644 46.1309 71.0909 46.1309 71.9191C46.1309 72.7422 46.1578 73.4598 46.2115 74.0723C46.2651 74.6849 46.3414 75.2132 46.4398 75.6572C46.5382 76.1012 46.6583 76.4666 46.8 76.7538C46.9417 77.0411 47.0995 77.269 47.2732 77.4375C47.447 77.6061 47.6363 77.7233 47.8401 77.7883C48.044 77.8533 48.2597 77.8858 48.4852 77.8858C48.7573 77.8858 49.0093 77.834 49.2404 77.7304C49.4716 77.6268 49.676 77.4451 49.8535 77.1842C50.031 76.9238 50.1774 76.5716 50.2947 76.1276C50.411 75.6836 50.4906 75.1181 50.5339 74.4316H50.9091V74.4321Z" fill="#064F94"/>
<path d="M54.5904 78.2944H51.9565V77.5839H52.7626V71.4398H51.9565V70.7293H53.7307V72.1056H53.7519C53.8168 71.8748 53.8964 71.6634 53.9915 71.4709C54.0862 71.2788 54.1912 71.1111 54.3056 70.9694C54.4205 70.8272 54.5424 70.718 54.671 70.6407C54.8 70.564 54.9309 70.5254 55.0636 70.5254C55.2784 70.5254 55.4559 70.629 55.5957 70.8361C55.7356 71.0433 55.8052 71.3305 55.8052 71.6973C55.8052 72.0227 55.7516 72.276 55.6437 72.4563C55.5359 72.6372 55.3965 72.7271 55.2242 72.7271C55.0453 72.7271 54.9078 72.6414 54.8132 72.4695C54.718 72.2977 54.6705 72.082 54.6705 71.8216C54.6705 71.6856 54.6865 71.5373 54.719 71.3776C54.5796 71.4605 54.4497 71.5923 54.3296 71.7727C54.2095 71.9535 54.1045 72.18 54.0151 72.4521C53.9256 72.7243 53.8554 73.0397 53.8055 73.3976C53.7556 73.7554 53.7307 74.1538 53.7307 74.5917V77.5839H54.5904V78.2944Z" fill="#064F94"/>
<path d="M60.5364 75.8886C60.4215 76.7469 60.1993 77.4038 59.8697 77.86C59.5401 78.3158 59.1121 78.5437 58.5847 78.5437C58.2227 78.5437 57.9006 78.4387 57.6171 78.2287C57.3337 78.0187 57.094 77.7329 56.8972 77.3718C56.6999 77.0106 56.5497 76.5892 56.4457 76.1066C56.3416 75.6244 56.2898 75.1107 56.2898 74.566C56.2898 74.0099 56.3435 73.483 56.4508 72.9858C56.5587 72.4886 56.7117 72.0563 56.9109 71.6895C57.1096 71.3227 57.3483 71.0313 57.6261 70.8152C57.9034 70.5995 58.2147 70.4912 58.5584 70.4912C58.8734 70.4912 59.1568 70.583 59.4078 70.7667C59.6583 70.9503 59.8716 71.206 60.0472 71.5346C60.2228 71.8633 60.358 72.2555 60.4526 72.7113C60.5477 73.1671 60.5991 73.6671 60.6061 74.2119H57.3648C57.361 74.3126 57.3591 74.379 57.3591 74.4115C57.3591 74.444 57.3591 74.4633 57.3591 74.4694C57.3591 75.1677 57.3902 75.736 57.4528 76.1744C57.5159 76.6123 57.6035 76.9541 57.7165 77.1999C57.8295 77.4457 57.9637 77.6128 58.1195 77.7014C58.2754 77.7904 58.4482 77.8346 58.6384 77.8346C58.8141 77.8346 58.9798 77.796 59.1356 77.7193C59.2915 77.6425 59.4323 77.5196 59.5575 77.3506C59.6828 77.1815 59.7929 76.9631 59.8881 76.6933C59.9827 76.4239 60.059 76.1 60.1164 75.721C60.188 75.7327 60.2596 75.7534 60.3311 75.7831C60.4036 75.8118 60.4719 75.8471 60.5364 75.8886ZM59.5203 73.5178C59.51 73.0267 59.478 72.6284 59.4266 72.3238C59.3748 72.0191 59.3056 71.7809 59.2199 71.609C59.1342 71.4371 59.0325 71.3204 58.9158 71.2582C58.7995 71.1961 58.6709 71.165 58.5315 71.165C58.3846 71.165 58.2476 71.2003 58.1205 71.2714C57.9934 71.3425 57.8794 71.4668 57.7791 71.6443C57.6784 71.8218 57.595 72.0615 57.5291 72.3633C57.4627 72.6656 57.417 73.0498 57.3921 73.5178H59.5203Z" fill="#064F94"/>
<path d="M66.1473 78.2946C65.9971 78.3422 65.8573 78.3714 65.7278 78.3831C65.5992 78.3949 65.4971 78.401 65.4217 78.401C65.232 78.401 65.0752 78.3761 64.9514 78.3257C64.8275 78.2758 64.7301 78.2028 64.6585 78.1082C64.5869 78.0135 64.5347 77.8982 64.5026 77.7621C64.4706 77.626 64.4508 77.4749 64.4438 77.3091H64.4165C64.3162 77.5398 64.2088 77.7352 64.0939 77.8953C63.979 78.055 63.859 78.1826 63.7333 78.2772C63.608 78.3718 63.4799 78.4401 63.3495 78.4815C63.2186 78.523 63.0868 78.5437 62.954 78.5437C62.7355 78.5437 62.5401 78.4947 62.3683 78.3973C62.1964 78.2998 62.0514 78.1618 61.9327 77.9843C61.8145 77.8068 61.7251 77.5954 61.6643 77.3496C61.6031 77.1043 61.573 76.8331 61.573 76.5369C61.573 75.7144 61.8178 75.0881 62.3071 74.6592C62.7963 74.2302 63.5011 74.0009 64.4221 73.9713C64.4254 73.7048 64.4282 73.4651 64.4301 73.2518C64.432 73.039 64.4329 72.829 64.4329 72.6213C64.4329 72.0827 64.3656 71.7055 64.2314 71.4894C64.0972 71.2738 63.8849 71.1654 63.5944 71.1654C63.4008 71.1654 63.228 71.2008 63.075 71.2719C62.9229 71.343 62.7982 71.4376 62.7016 71.5563C62.7878 71.6928 62.8509 71.8359 62.8923 71.9871C62.9338 72.1382 62.954 72.2875 62.954 72.4353C62.954 72.684 62.9055 72.8911 62.809 73.0569C62.712 73.2226 62.5797 73.3055 62.4111 73.3055C62.3395 73.3055 62.2694 73.2876 62.2016 73.2523C62.1333 73.217 62.074 73.1609 62.0241 73.0837C61.9742 73.0065 61.9337 72.9104 61.9031 72.7951C61.8729 72.6792 61.8574 72.545 61.8574 72.3911C61.8574 72.1486 61.8974 71.9132 61.9784 71.6853C62.0589 71.4574 62.179 71.2544 62.3386 71.0769C62.4982 70.8994 62.6969 70.7572 62.9356 70.6508C63.1739 70.5439 63.4526 70.4907 63.7709 70.4907C64.029 70.4907 64.2573 70.5321 64.4565 70.615C64.6552 70.6979 64.8233 70.8359 64.9617 71.028C65.0992 71.2205 65.2037 71.4762 65.2734 71.7959C65.3431 72.1156 65.3784 72.5121 65.3784 72.9858C65.3784 73.1039 65.3775 73.2979 65.3756 73.5673C65.3737 73.8366 65.3709 74.1342 65.3671 74.4595C65.3634 74.7849 65.3605 75.1154 65.3591 75.4497C65.3572 75.784 65.3563 76.0788 65.3563 76.333C65.3563 76.5934 65.3596 76.811 65.3666 76.9857C65.3742 77.1603 65.3921 77.2997 65.4203 77.4033C65.449 77.5069 65.4919 77.5808 65.5493 77.6251C65.6063 77.6693 65.6873 77.6919 65.7914 77.6919C65.8804 77.6919 65.999 77.674 66.1459 77.6387V78.2946H66.1473ZM64.4221 74.6366C64.0313 74.6545 63.7158 74.7034 63.4757 74.7835C63.2356 74.8631 63.0496 74.976 62.9168 75.1206C62.784 75.2656 62.6941 75.4417 62.6479 75.6489C62.6013 75.8561 62.5783 76.0929 62.5783 76.3594C62.5783 76.8209 62.6367 77.166 62.753 77.3939C62.8693 77.6218 63.0298 77.7357 63.2337 77.7357C63.3448 77.7357 63.4696 77.6971 63.6075 77.6204C63.7455 77.5436 63.875 77.4174 63.9969 77.2427C64.1189 77.0681 64.2201 76.8387 64.3011 76.5548C64.3816 76.2709 64.4221 75.9187 64.4221 75.4982V74.6366Z" fill="#064F94"/>
<path d="M70.1035 76.5187C70.0065 77.2113 69.8469 77.7217 69.6246 78.0504C69.4024 78.3791 69.0963 78.5429 68.7055 78.5429C68.5012 78.5429 68.318 78.5015 68.1546 78.4186C67.9913 78.3357 67.8524 78.2039 67.7379 78.0236C67.6235 77.8432 67.5355 77.612 67.4743 77.3309C67.4135 77.0498 67.3834 76.708 67.3834 76.3054V71.4396H66.5768V70.7291H67.3834V69.0067L68.351 68.7402V70.7291H69.7485V71.4396H68.351V76.5008C68.351 76.7438 68.3642 76.942 68.391 77.0955C68.4183 77.2495 68.4569 77.3705 68.5068 77.4595C68.5567 77.548 68.6156 77.6087 68.6843 77.6412C68.7521 77.6737 68.8294 77.6902 68.9151 77.6902C69.03 77.6902 69.1284 77.6619 69.2108 77.6059C69.2932 77.5499 69.3657 77.4637 69.4288 77.3484C69.4914 77.233 69.5451 77.0894 69.5898 76.9175C69.635 76.7457 69.6769 76.5474 69.7165 76.3224C69.7847 76.3403 69.8507 76.3638 69.9152 76.3935C69.9797 76.4241 70.0423 76.465 70.1035 76.5187Z" fill="#064F94"/>
<path d="M72.362 77.5838H73.1681V78.2943H70.5883V77.5838H71.3944V71.4396H70.5883V70.7291H72.3624V77.5838H72.362ZM71.8775 68.2251C71.7847 68.2251 71.6995 68.2002 71.6222 68.1498C71.5455 68.0999 71.4772 68.0269 71.4179 67.9323C71.3586 67.8376 71.3129 67.7265 71.2809 67.5989C71.2489 67.4718 71.2324 67.3282 71.2324 67.1681C71.2324 67.0141 71.2493 66.8724 71.2832 66.742C71.3171 66.6115 71.3628 66.499 71.4203 66.4044C71.4772 66.3097 71.546 66.2358 71.6246 66.1821C71.7032 66.1289 71.788 66.1025 71.877 66.1025C71.9664 66.1025 72.0507 66.128 72.1298 66.1779C72.2085 66.2283 72.2772 66.3008 72.3365 66.3954C72.3959 66.4905 72.4415 66.6012 72.4735 66.7288C72.5056 66.8564 72.522 66.9995 72.522 67.1596C72.522 67.3197 72.5051 67.4642 72.4712 67.5947C72.4373 67.7251 72.3916 67.8362 72.3342 67.9276C72.2767 68.0194 72.2085 68.0919 72.1298 68.1451C72.0512 68.1988 71.9674 68.2251 71.8775 68.2251Z" fill="#064F94"/>
<path d="M73.8934 74.5833C73.8934 74.0268 73.9462 73.4999 74.0516 73.0027C74.1576 72.5055 74.3125 72.0704 74.5168 71.6975C74.7212 71.3246 74.9707 71.0303 75.2664 70.8142C75.5621 70.5985 75.8983 70.4902 76.2745 70.4902C76.6474 70.4902 76.977 70.5957 77.2638 70.8057C77.5505 71.0157 77.7907 71.3015 77.9842 71.6622C78.1772 72.0233 78.3237 72.4438 78.4221 72.9231C78.5209 73.4025 78.5699 73.9119 78.5699 74.4501C78.5699 75.0066 78.5172 75.5335 78.4112 76.0307C78.3053 76.528 78.1504 76.963 77.9465 77.336C77.7426 77.7089 77.4921 78.0032 77.1964 78.2193C76.9007 78.4349 76.5646 78.5432 76.1884 78.5432C75.8159 78.5432 75.4863 78.4382 75.1991 78.2282C74.9128 78.0182 74.6727 77.7324 74.4792 77.3713C74.2856 77.0101 74.1392 76.5901 74.0408 76.1103C73.9424 75.631 73.8934 75.122 73.8934 74.5833ZM74.9571 74.5476C74.9571 75.1931 74.9844 75.7285 75.0381 76.1546C75.0913 76.5807 75.1704 76.9211 75.2744 77.1759C75.3785 77.4306 75.5089 77.6095 75.6666 77.7131C75.8244 77.8167 76.009 77.8685 76.2204 77.8685C76.428 77.8685 76.6131 77.8153 76.7741 77.7089C76.9356 77.6025 77.0698 77.4202 77.1771 77.1627C77.2845 76.9051 77.366 76.559 77.422 76.1235C77.4775 75.6884 77.5053 75.1427 77.5053 74.4854C77.5053 73.8403 77.4785 73.3045 77.4248 72.8779C77.3711 72.4518 77.292 72.1114 77.188 71.8571C77.0839 71.6029 76.9525 71.4235 76.7929 71.3199C76.6333 71.2163 76.4497 71.1645 76.242 71.1645C76.0306 71.1645 75.8451 71.2177 75.6855 71.3241C75.5259 71.4305 75.3926 71.6127 75.2848 71.8703C75.177 72.1279 75.096 72.4739 75.0399 72.9095C74.9849 73.3445 74.9571 73.8907 74.9571 74.5476Z" fill="#064F94"/>
<path d="M81.0962 77.5841H81.8218V78.2946H79.322V77.5841H80.1281V71.4399H79.322V70.7294H81.0962V72.0167H81.1174C81.2648 71.5256 81.4611 71.148 81.7088 70.8848C81.956 70.6216 82.2747 70.4897 82.6655 70.4897C83.1566 70.4897 83.5216 70.6983 83.7622 71.116C84.0023 71.5332 84.1224 72.1297 84.1224 72.9052V77.5845H84.9016V78.2951H82.4292V77.5845H83.1548V72.6566C83.1548 72.1891 83.0879 71.8439 82.9556 71.6221C82.8233 71.3999 82.6368 71.2888 82.3962 71.2888C82.2135 71.2888 82.0435 71.3523 81.8858 71.4799C81.7281 71.6075 81.5911 71.8039 81.4748 72.0704C81.358 72.3369 81.2662 72.6773 81.1979 73.0912C81.1296 73.5056 81.0957 73.9971 81.0957 74.565V77.5841H81.0962Z" fill="#064F94"/>
<path d="M88.6161 73.2424C88.5982 72.8577 88.5596 72.5318 88.5003 72.2658C88.4414 71.9993 88.3614 71.7832 88.2611 71.6175C88.1608 71.4517 88.0398 71.3321 87.898 71.2577C87.7563 71.1838 87.5943 71.1466 87.4117 71.1466C87.2718 71.1466 87.1433 71.1687 87.0246 71.2135C86.9064 71.2577 86.8043 71.326 86.7186 71.4178C86.6324 71.5096 86.5655 71.6297 86.517 71.7775C86.4685 71.9254 86.4445 72.1034 86.4445 72.3105C86.4445 72.5177 86.4671 72.6877 86.5119 72.821C86.5566 72.9542 86.63 73.0729 86.7322 73.176C86.8344 73.2796 86.9653 73.3789 87.1249 73.4736C87.2841 73.5682 87.4804 73.6807 87.7135 73.8112C87.8999 73.9176 88.084 74.0301 88.2672 74.1483C88.4499 74.2669 88.6137 74.4148 88.7588 74.5923C88.9043 74.7698 89.0215 74.9845 89.111 75.236C89.2004 75.4879 89.2452 75.7939 89.2452 76.1551C89.2452 76.5638 89.1896 76.9188 89.0785 77.2206C88.9674 77.5224 88.8204 77.771 88.6373 77.9664C88.4546 78.1618 88.247 78.3068 88.0139 78.4015C87.7813 78.4961 87.5426 78.5437 87.2991 78.5437C87.1701 78.5437 87.0331 78.5319 86.8876 78.5084C86.7426 78.4848 86.5994 78.4519 86.4577 78.4104C86.316 78.369 86.1818 78.32 86.0547 78.264C85.9275 78.2075 85.8155 78.1501 85.7189 78.0907L85.6813 75.5156H86.0523C86.0697 75.9658 86.1083 76.3429 86.1677 76.6476C86.2265 76.9522 86.3094 77.1966 86.4149 77.3802C86.5203 77.5638 86.6494 77.6943 86.8014 77.771C86.9535 77.8482 87.132 77.8864 87.3363 77.8864C87.4903 77.8864 87.633 77.8642 87.7639 77.82C87.8943 77.7757 88.0087 77.7046 88.1052 77.6067C88.2018 77.5088 88.278 77.3802 88.3336 77.2206C88.3891 77.061 88.4169 76.8684 88.4169 76.6433C88.4169 76.4479 88.3953 76.2869 88.3524 76.1593C88.3091 76.0317 88.2413 75.9182 88.1481 75.8175C88.0548 75.7167 87.9348 75.622 87.7874 75.5331C87.6405 75.4445 87.4649 75.3409 87.261 75.2223C87.0566 75.1041 86.8603 74.9812 86.6724 74.8541C86.4846 74.7265 86.3183 74.573 86.1747 74.3922C86.0316 74.2118 85.9167 73.9943 85.831 73.7396C85.7453 73.4849 85.7025 73.1741 85.7025 72.8073C85.7025 72.4052 85.7524 72.0572 85.8527 71.7644C85.953 71.471 86.0867 71.2299 86.2534 71.0407C86.42 70.8514 86.6117 70.712 86.8287 70.6235C87.0453 70.535 87.2704 70.4902 87.5035 70.4902C87.6217 70.4902 87.7455 70.5006 87.874 70.5213C88.0031 70.542 88.1316 70.5703 88.2583 70.6056C88.3859 70.6409 88.5073 70.6809 88.6236 70.7252C88.7399 70.7694 88.8468 70.8128 88.9438 70.8537L88.981 73.2424H88.6161Z" fill="#064F94"/>
<path d="M94.9683 71.2443H95.6727C95.9128 71.2443 96.1134 71.2298 96.2744 71.2001C96.4359 71.1704 96.5654 71.0861 96.6638 70.9468C96.7627 70.8079 96.8366 70.5917 96.8875 70.2989C96.9374 70.006 96.9736 69.5931 96.9948 69.0605H97.3767V74.3171H96.9948C96.9769 73.7785 96.9463 73.3538 96.904 73.043C96.8606 72.7322 96.791 72.4968 96.6944 72.3372C96.5974 72.1771 96.468 72.0768 96.3046 72.0349C96.1412 71.9939 95.9312 71.9728 95.6732 71.9728H94.9688V77.5844H96.3931C96.6728 77.5844 96.9181 77.5665 97.1295 77.5312C97.3404 77.4954 97.5255 77.4304 97.6832 77.3358C97.8405 77.2411 97.9761 77.1079 98.0886 76.936C98.2016 76.7646 98.2991 76.5424 98.3815 76.2702C98.4639 75.9981 98.5336 75.6661 98.591 75.2758C98.6485 74.8854 98.7021 74.4231 98.7525 73.8905H99.1287L99.0209 78.2949H92.8452V77.5844H93.9202V66.1036H92.8452V65.3931H98.8867L98.9945 68.9537H98.6183C98.5647 68.3618 98.4978 67.8811 98.4192 67.511C98.3405 67.1409 98.2304 66.8513 98.0886 66.6408C97.9469 66.4308 97.7628 66.2886 97.5349 66.2147C97.307 66.1408 97.0198 66.1036 96.6723 66.1036H94.9683V71.2443Z" fill="#064F94"/>
<path d="M104.876 77.5839H105.682V78.2944H103.908V77.2199H103.886C103.794 77.4747 103.692 77.6861 103.583 77.8546C103.473 78.0232 103.358 78.1598 103.236 78.2633C103.115 78.3669 102.987 78.4394 102.854 78.4809C102.722 78.5223 102.587 78.543 102.451 78.543C102.111 78.543 101.808 78.438 101.543 78.228C101.278 78.018 101.054 77.7341 100.871 77.3758C100.688 77.0175 100.549 76.5989 100.454 76.1195C100.359 75.6398 100.312 75.1284 100.312 74.5836C100.312 74.0153 100.363 73.4814 100.468 72.9809C100.572 72.4803 100.719 72.0472 100.911 71.6799C101.102 71.3126 101.332 71.0226 101.599 70.8097C101.866 70.5965 102.162 70.49 102.488 70.49C102.804 70.49 103.08 70.5983 103.316 70.814C103.553 71.0301 103.743 71.3333 103.886 71.7241H103.908V66.1036H103.048V65.3931H104.875V77.5839H104.876ZM101.377 74.5299C101.377 75.2047 101.405 75.7565 101.463 76.1859C101.52 76.6154 101.601 76.9525 101.705 77.1978C101.809 77.4436 101.933 77.6122 102.079 77.704C102.224 77.7958 102.383 77.8415 102.554 77.8415C102.827 77.8415 103.05 77.744 103.224 77.5486C103.398 77.3532 103.536 77.0956 103.638 76.7759C103.74 76.4562 103.811 76.0937 103.85 75.6883C103.889 75.2829 103.909 74.8699 103.909 74.4494C103.909 73.8458 103.876 73.3349 103.81 72.9178C103.743 72.5006 103.651 72.1644 103.533 71.9101C103.415 71.6559 103.274 71.4722 103.111 71.3597C102.948 71.2476 102.77 71.1912 102.576 71.1912C102.404 71.1912 102.245 71.2354 102.098 71.3244C101.95 71.4129 101.823 71.5805 101.716 71.8259C101.608 72.0716 101.525 72.4107 101.466 72.8424C101.406 73.2751 101.377 73.8369 101.377 74.5299Z" fill="#064F94"/>
<path d="M109.972 71.44H109.192V70.7295H110.939V77.5841H111.746V78.2947H109.972V77.158H109.95C109.792 77.6317 109.597 77.9811 109.364 78.2057C109.131 78.4307 108.83 78.5428 108.461 78.5428C107.949 78.5428 107.568 78.337 107.319 77.9255C107.069 77.514 106.945 76.9151 106.945 76.1278V71.4395H106.166V70.729H107.913V76.3938C107.913 76.8736 107.98 77.2183 108.114 77.4283C108.249 77.6388 108.441 77.7438 108.693 77.7438C108.868 77.7438 109.034 77.6891 109.19 77.5794C109.346 77.4702 109.482 77.2908 109.599 77.0422C109.715 76.7936 109.806 76.4682 109.873 76.0656C109.939 75.6635 109.972 75.1691 109.972 74.5829V71.44H109.972Z" fill="#064F94"/>
<path d="M116.706 75.8354C116.588 76.729 116.367 77.4042 116.042 77.86C115.718 78.3158 115.298 78.5437 114.782 78.5437C114.423 78.5437 114.102 78.4387 113.817 78.2287C113.532 78.0187 113.29 77.7329 113.091 77.3717C112.892 77.0106 112.739 76.5906 112.631 76.1108C112.524 75.6315 112.47 75.1225 112.47 74.5838C112.47 74.0216 112.526 73.4915 112.639 72.9942C112.752 72.497 112.912 72.0634 113.12 71.6937C113.328 71.3241 113.578 71.0308 113.87 70.8147C114.162 70.599 114.487 70.4907 114.846 70.4907C115.1 70.4907 115.333 70.5458 115.547 70.655C115.76 70.7648 115.944 70.9112 116.098 71.0948C116.252 71.2785 116.372 71.4913 116.458 71.7338C116.544 71.9767 116.587 72.231 116.587 72.4975C116.587 72.6868 116.567 72.8455 116.528 72.9726C116.488 73.1002 116.439 73.2019 116.38 73.2786C116.321 73.3559 116.255 73.4119 116.184 73.4472C116.112 73.483 116.044 73.5004 115.979 73.5004C115.804 73.5004 115.665 73.4086 115.563 73.2254C115.461 73.0423 115.41 72.8228 115.41 72.5681C115.41 72.4141 115.433 72.2484 115.479 72.0709C115.526 71.8934 115.598 71.7276 115.694 71.5737C115.572 71.4141 115.432 71.3062 115.272 71.2497C115.113 71.1932 114.967 71.1654 114.834 71.1654C114.666 71.1654 114.503 71.2027 114.348 71.2761C114.192 71.3505 114.054 71.5073 113.934 71.747C113.814 71.9866 113.718 72.3284 113.646 72.7725C113.575 73.2165 113.539 73.8083 113.539 74.5481C113.539 75.2346 113.572 75.7911 113.638 76.2172C113.704 76.6433 113.796 76.9762 113.912 77.2164C114.028 77.456 114.166 77.6189 114.323 77.7046C114.481 77.7903 114.653 77.8332 114.84 77.8332C115.008 77.8332 115.167 77.7946 115.318 77.7178C115.469 77.6406 115.606 77.5182 115.729 77.3491C115.853 77.1806 115.962 76.9583 116.057 76.6829C116.152 76.4079 116.228 76.0689 116.285 75.6663C116.357 75.6781 116.429 75.6988 116.5 75.7285C116.572 75.7581 116.642 75.7939 116.706 75.8354Z" fill="#064F94"/>
<path d="M122.087 78.2946C121.937 78.3422 121.797 78.3714 121.667 78.3831C121.539 78.3949 121.437 78.401 121.361 78.401C121.172 78.401 121.015 78.3761 120.891 78.3257C120.767 78.2758 120.67 78.2028 120.598 78.1082C120.526 78.0135 120.474 77.8982 120.442 77.7621C120.41 77.626 120.39 77.4749 120.383 77.3091H120.356C120.256 77.5398 120.148 77.7352 120.033 77.8953C119.919 78.055 119.799 78.1826 119.673 78.2772C119.548 78.3718 119.419 78.4401 119.289 78.4815C119.158 78.523 119.026 78.5437 118.894 78.5437C118.675 78.5437 118.48 78.4947 118.308 78.3973C118.136 78.2998 117.991 78.1618 117.872 77.9843C117.754 77.8068 117.665 77.5954 117.604 77.3496C117.543 77.1043 117.513 76.8331 117.513 76.5369C117.513 75.7144 117.757 75.0881 118.247 74.6592C118.736 74.2302 119.441 74.0009 120.362 73.9713C120.365 73.7048 120.368 73.4651 120.37 73.2518C120.372 73.039 120.372 72.829 120.372 72.6213C120.372 72.0827 120.305 71.7055 120.171 71.4894C120.037 71.2738 119.824 71.1654 119.534 71.1654C119.34 71.1654 119.168 71.2008 119.015 71.2719C118.862 71.343 118.738 71.4376 118.641 71.5563C118.727 71.6928 118.79 71.8359 118.832 71.9871C118.873 72.1382 118.894 72.2875 118.894 72.4353C118.894 72.684 118.845 72.8911 118.749 73.0569C118.652 73.2226 118.519 73.3055 118.351 73.3055C118.279 73.3055 118.209 73.2876 118.141 73.2523C118.073 73.217 118.014 73.1609 117.964 73.0837C117.914 73.0065 117.873 72.9104 117.843 72.7951C117.812 72.6792 117.797 72.545 117.797 72.3911C117.797 72.1486 117.837 71.9132 117.918 71.6853C117.998 71.4574 118.119 71.2544 118.278 71.0769C118.438 70.8994 118.636 70.7572 118.875 70.6508C119.113 70.5439 119.392 70.4907 119.71 70.4907C119.968 70.4907 120.197 70.5321 120.396 70.615C120.595 70.6979 120.763 70.8359 120.901 71.028C121.039 71.2205 121.143 71.4762 121.213 71.7959C121.283 72.1156 121.318 72.5121 121.318 72.9858C121.318 73.1039 121.317 73.2979 121.315 73.5673C121.313 73.8366 121.31 74.1342 121.307 74.4595C121.303 74.7849 121.3 75.1154 121.299 75.4497C121.297 75.784 121.296 76.0788 121.296 76.333C121.296 76.5934 121.299 76.811 121.306 76.9857C121.314 77.1603 121.332 77.2997 121.36 77.4033C121.389 77.5069 121.431 77.5808 121.489 77.6251C121.546 77.6693 121.627 77.6919 121.731 77.6919C121.82 77.6919 121.939 77.674 122.085 77.6387V78.2946H122.087ZM120.362 74.6366C119.971 74.6545 119.655 74.7034 119.415 74.7835C119.175 74.8631 118.989 74.976 118.856 75.1206C118.724 75.2656 118.634 75.4417 118.587 75.6489C118.541 75.8561 118.518 76.0929 118.518 76.3594C118.518 76.8209 118.576 77.166 118.692 77.3939C118.809 77.6218 118.969 77.7357 119.173 77.7357C119.284 77.7357 119.409 77.6971 119.547 77.6204C119.685 77.5436 119.815 77.4174 119.936 77.2427C120.058 77.0681 120.16 76.8387 120.241 76.5548C120.321 76.2709 120.362 75.9187 120.362 75.4982V74.6366Z" fill="#064F94"/>
<path d="M126.043 76.5187C125.946 77.2113 125.786 77.7217 125.564 78.0504C125.342 78.3791 125.036 78.5429 124.645 78.5429C124.441 78.5429 124.258 78.5015 124.094 78.4186C123.931 78.3357 123.792 78.2039 123.677 78.0236C123.563 77.8432 123.475 77.612 123.414 77.3309C123.353 77.0498 123.323 76.708 123.323 76.3054V71.4396H122.516V70.7291H123.323V69.0067L124.29 68.7402V70.7291H125.688V71.4396H124.29V76.5008C124.29 76.7438 124.304 76.942 124.331 77.0955C124.358 77.2495 124.396 77.3705 124.446 77.4595C124.496 77.548 124.555 77.6087 124.624 77.6412C124.692 77.6737 124.769 77.6902 124.855 77.6902C124.969 77.6902 125.068 77.6619 125.15 77.6059C125.233 77.5499 125.305 77.4637 125.368 77.3484C125.431 77.233 125.485 77.0894 125.529 76.9175C125.575 76.7457 125.616 76.5474 125.656 76.3224C125.724 76.3403 125.79 76.3638 125.855 76.3935C125.92 76.4241 125.982 76.465 126.043 76.5187Z" fill="#064F94"/>
<path d="M128.3 77.5838H129.107V78.2943H126.527V77.5838H127.333V71.4396H126.527V70.7291H128.301V77.5838H128.3ZM127.816 68.2251C127.724 68.2251 127.638 68.2002 127.561 68.1498C127.484 68.0999 127.416 68.0269 127.357 67.9323C127.298 67.8376 127.252 67.7265 127.22 67.5989C127.188 67.4718 127.171 67.3282 127.171 67.1681C127.171 67.0141 127.188 66.8724 127.222 66.742C127.256 66.6115 127.302 66.499 127.359 66.4044C127.416 66.3097 127.485 66.2358 127.564 66.1821C127.642 66.1289 127.727 66.1025 127.816 66.1025C127.905 66.1025 127.99 66.128 128.069 66.1779C128.147 66.2283 128.216 66.3008 128.276 66.3954C128.335 66.4905 128.381 66.6012 128.413 66.7288C128.445 66.8564 128.461 66.9995 128.461 67.1596C128.461 67.3197 128.444 67.4642 128.41 67.5947C128.376 67.7251 128.331 67.8362 128.273 67.9276C128.216 68.0194 128.147 68.0919 128.069 68.1451C127.99 68.1988 127.906 68.2251 127.816 68.2251Z" fill="#064F94"/>
<path d="M129.833 74.5833C129.833 74.0268 129.886 73.4999 129.991 73.0027C130.097 72.5055 130.252 72.0704 130.456 71.6975C130.661 71.3246 130.91 71.0303 131.206 70.8142C131.502 70.5985 131.838 70.4902 132.214 70.4902C132.587 70.4902 132.916 70.5957 133.203 70.8057C133.49 71.0157 133.73 71.3015 133.924 71.6622C134.117 72.0233 134.263 72.4438 134.362 72.9231C134.46 73.4025 134.509 73.9119 134.509 74.4501C134.509 75.0066 134.457 75.5335 134.351 76.0307C134.245 76.528 134.09 76.963 133.886 77.336C133.682 77.7089 133.432 78.0032 133.136 78.2193C132.84 78.4349 132.504 78.5432 132.128 78.5432C131.755 78.5432 131.426 78.4382 131.139 78.2282C130.852 78.0182 130.612 77.7324 130.419 77.3713C130.225 77.0101 130.079 76.5901 129.98 76.1103C129.882 75.631 129.833 75.122 129.833 74.5833ZM130.897 74.5476C130.897 75.1931 130.924 75.7285 130.978 76.1546C131.031 76.5807 131.11 76.9211 131.214 77.1759C131.318 77.4306 131.449 77.6095 131.607 77.7131C131.764 77.8167 131.949 77.8685 132.16 77.8685C132.368 77.8685 132.553 77.8153 132.714 77.7089C132.876 77.6025 133.01 77.4202 133.117 77.1627C133.224 76.9051 133.306 76.559 133.362 76.1235C133.417 75.6884 133.445 75.1427 133.445 74.4854C133.445 73.8403 133.418 73.3045 133.365 72.8779C133.311 72.4518 133.232 72.1114 133.128 71.8571C133.024 71.6029 132.892 71.4235 132.733 71.3199C132.573 71.2163 132.39 71.1645 132.182 71.1645C131.971 71.1645 131.785 71.2177 131.625 71.3241C131.466 71.4305 131.333 71.6127 131.225 71.8703C131.117 72.1279 131.036 72.4739 130.98 72.9095C130.925 73.3445 130.897 73.8907 130.897 74.5476Z" fill="#064F94"/>
<path d="M137.035 77.5841H137.76V78.2946H135.261V77.5841H136.067V71.4399H135.261V70.7294H137.035V72.0167H137.056C137.203 71.5256 137.4 71.148 137.647 70.8848C137.894 70.6216 138.213 70.4897 138.604 70.4897C139.095 70.4897 139.46 70.6983 139.701 71.116C139.941 71.5332 140.061 72.1297 140.061 72.9052V77.5845H140.84V78.2951H138.368V77.5845H139.093V72.6566C139.093 72.1891 139.026 71.8439 138.894 71.6221C138.762 71.3999 138.575 71.2888 138.335 71.2888C138.152 71.2888 137.982 71.3523 137.824 71.4799C137.667 71.6075 137.53 71.8039 137.413 72.0704C137.296 72.3369 137.205 72.6773 137.136 73.0912C137.068 73.5056 137.034 73.9971 137.034 74.565L137.035 77.5841Z" fill="#064F94"/>
<path d="M146.087 78.2946C145.936 78.3422 145.796 78.3714 145.667 78.3831C145.538 78.3949 145.436 78.401 145.361 78.401C145.171 78.401 145.014 78.3761 144.891 78.3257C144.767 78.2758 144.669 78.2028 144.598 78.1082C144.526 78.0135 144.474 77.8982 144.442 77.7621C144.41 77.626 144.39 77.4749 144.383 77.3091H144.356C144.255 77.5398 144.148 77.7352 144.033 77.8953C143.918 78.055 143.798 78.1826 143.672 78.2772C143.547 78.3718 143.419 78.4401 143.289 78.4815C143.158 78.523 143.026 78.5437 142.893 78.5437C142.675 78.5437 142.479 78.4947 142.307 78.3973C142.136 78.2998 141.991 78.1618 141.872 77.9843C141.754 77.8068 141.664 77.5954 141.604 77.3496C141.542 77.1043 141.512 76.8331 141.512 76.5369C141.512 75.7144 141.757 75.0881 142.246 74.6592C142.735 74.2302 143.44 74.0009 144.361 73.9713C144.365 73.7048 144.367 73.4651 144.369 73.2518C144.371 73.039 144.372 72.829 144.372 72.6213C144.372 72.0827 144.305 71.7055 144.171 71.4894C144.036 71.2738 143.824 71.1654 143.534 71.1654C143.34 71.1654 143.167 71.2008 143.014 71.2719C142.862 71.343 142.737 71.4376 142.641 71.5563C142.727 71.6928 142.79 71.8359 142.832 71.9871C142.873 72.1382 142.893 72.2875 142.893 72.4353C142.893 72.684 142.845 72.8911 142.748 73.0569C142.651 73.2226 142.519 73.3055 142.35 73.3055C142.279 73.3055 142.209 73.2876 142.141 73.2523C142.073 73.217 142.013 73.1609 141.963 73.0837C141.913 73.0065 141.873 72.9104 141.842 72.7951C141.812 72.6792 141.797 72.545 141.797 72.3911C141.797 72.1486 141.837 71.9132 141.918 71.6853C141.998 71.4574 142.118 71.2544 142.278 71.0769C142.437 70.8994 142.636 70.7572 142.875 70.6508C143.113 70.5439 143.392 70.4907 143.71 70.4907C143.968 70.4907 144.197 70.5321 144.396 70.615C144.594 70.6979 144.762 70.8359 144.901 71.028C145.038 71.2205 145.143 71.4762 145.213 71.7959C145.282 72.1156 145.318 72.5121 145.318 72.9858C145.318 73.1039 145.317 73.2979 145.315 73.5673C145.313 73.8366 145.31 74.1342 145.306 74.4595C145.303 74.7849 145.3 75.1154 145.298 75.4497C145.296 75.784 145.295 76.0788 145.295 76.333C145.295 76.5934 145.299 76.811 145.306 76.9857C145.313 77.1603 145.331 77.2997 145.36 77.4033C145.388 77.5069 145.431 77.5808 145.489 77.6251C145.545 77.6693 145.626 77.6919 145.731 77.6919C145.82 77.6919 145.938 77.674 146.085 77.6387V78.2946H146.087ZM144.361 74.6366C143.97 74.6545 143.655 74.7034 143.415 74.7835C143.175 74.8631 142.989 74.976 142.856 75.1206C142.723 75.2656 142.633 75.4417 142.587 75.6489C142.541 75.8561 142.517 76.0929 142.517 76.3594C142.517 76.8209 142.576 77.166 142.692 77.3939C142.808 77.6218 142.969 77.7357 143.173 77.7357C143.284 77.7357 143.409 77.6971 143.547 77.6204C143.685 77.5436 143.814 77.4174 143.936 77.2427C144.058 77.0681 144.159 76.8387 144.24 76.5548C144.321 76.2709 144.361 75.9187 144.361 75.4982V74.6366Z" fill="#064F94"/>
<path d="M148.371 77.5839H149.177V78.2944H146.597V77.5839H147.403V66.1031H146.597V65.3926H148.371V77.5839H148.371Z" fill="#064F94"/>
<path d="M154.767 66.1036V71.5108H155.471C155.711 71.5108 155.912 71.4962 156.073 71.4666C156.234 71.4369 156.364 71.3512 156.462 71.209C156.561 71.0668 156.635 70.8465 156.686 70.5475C156.736 70.2485 156.772 69.8266 156.793 69.2818H157.175V74.6274H156.793C156.776 74.077 156.745 73.6433 156.703 73.3264C156.659 73.01 156.59 72.7699 156.493 72.607C156.396 72.4445 156.267 72.3424 156.103 72.3009C155.94 72.2595 155.73 72.2388 155.472 72.2388H154.767V77.5839H155.896V78.2944H152.644V77.5839H153.719V66.1031H152.644V65.3926H158.632L158.75 69.1307H158.374C158.328 68.4913 158.265 67.9747 158.186 67.5811C158.107 67.1875 157.996 66.8814 157.85 66.662C157.705 66.443 157.517 66.2952 157.286 66.218C157.055 66.1412 156.766 66.1026 156.418 66.1026H154.767V66.1036Z" fill="#064F94"/>
<path d="M158.939 74.5833C158.939 74.0268 158.992 73.4999 159.097 73.0027C159.203 72.5055 159.358 72.0704 159.563 71.6975C159.767 71.3246 160.017 71.0303 160.312 70.8142C160.608 70.5985 160.944 70.4902 161.32 70.4902C161.693 70.4902 162.023 70.5957 162.31 70.8057C162.596 71.0157 162.836 71.3015 163.03 71.6622C163.223 72.0233 163.369 72.4438 163.468 72.9231C163.567 73.4025 163.616 73.9119 163.616 74.4501C163.616 75.0066 163.563 75.5335 163.457 76.0307C163.351 76.528 163.196 76.963 162.992 77.336C162.788 77.7089 162.538 78.0032 162.242 78.2193C161.947 78.4349 161.61 78.5432 161.234 78.5432C160.862 78.5432 160.532 78.4382 160.245 78.2282C159.959 78.0182 159.718 77.7324 159.525 77.3713C159.331 77.0101 159.185 76.5901 159.087 76.1103C158.988 75.631 158.939 75.122 158.939 74.5833ZM160.003 74.5476C160.003 75.1931 160.03 75.7285 160.084 76.1546C160.137 76.5807 160.216 76.9211 160.32 77.1759C160.424 77.4306 160.555 77.6095 160.712 77.7131C160.87 77.8167 161.055 77.8685 161.266 77.8685C161.474 77.8685 161.659 77.8153 161.82 77.7089C161.981 77.6025 162.116 77.4202 162.223 77.1627C162.33 76.9051 162.412 76.559 162.468 76.1235C162.523 75.6884 162.551 75.1427 162.551 74.4854C162.551 73.8403 162.524 73.3045 162.471 72.8779C162.417 72.4518 162.338 72.1114 162.234 71.8571C162.13 71.6029 161.998 71.4235 161.839 71.3199C161.679 71.2163 161.495 71.1645 161.288 71.1645C161.076 71.1645 160.891 71.2177 160.731 71.3241C160.572 71.4305 160.438 71.6127 160.331 71.8703C160.223 72.1279 160.142 72.4739 160.086 72.9095C160.031 73.3445 160.003 73.8907 160.003 74.5476Z" fill="#064F94"/>
<path d="M168.092 71.44H167.313V70.7295H169.06V77.5841H169.866V78.2947H168.092V77.158H168.071C167.913 77.6317 167.718 77.9811 167.485 78.2057C167.252 78.4307 166.951 78.5428 166.582 78.5428C166.07 78.5428 165.689 78.337 165.44 77.9255C165.19 77.514 165.066 76.9151 165.066 76.1278V71.4395H164.287V70.729H166.034V76.3938C166.034 76.8736 166.101 77.2183 166.235 77.4283C166.369 77.6388 166.562 77.7438 166.813 77.7438C166.989 77.7438 167.155 77.6891 167.311 77.5794C167.467 77.4702 167.603 77.2908 167.719 77.0422C167.836 76.7936 167.927 76.4682 167.993 76.0656C168.06 75.6635 168.093 75.1691 168.093 74.5829L168.092 71.44Z" fill="#064F94"/>
<path d="M172.204 77.5841H172.93V78.2946H170.43V77.5841H171.236V71.4399H170.43V70.7294H172.204V72.0167H172.225C172.373 71.5256 172.569 71.148 172.817 70.8848C173.064 70.6216 173.383 70.4897 173.774 70.4897C174.265 70.4897 174.63 70.6983 174.87 71.116C175.11 71.5332 175.23 72.1297 175.23 72.9052V77.5845H176.01V78.2951H173.537V77.5845H174.263V72.6566C174.263 72.1891 174.196 71.8439 174.064 71.6221C173.931 71.3999 173.745 71.2888 173.504 71.2888C173.322 71.2888 173.152 71.3523 172.994 71.4799C172.836 71.6075 172.699 71.8039 172.583 72.0704C172.466 72.3369 172.374 72.6773 172.306 73.0912C172.238 73.5056 172.204 73.9971 172.204 74.565V77.5841H172.204Z" fill="#064F94"/>
<path d="M181.272 77.5839H182.079V78.2944H180.305V77.2199H180.283C180.19 77.4747 180.089 77.6861 179.979 77.8546C179.87 78.0232 179.754 78.1598 179.633 78.2633C179.511 78.3669 179.384 78.4394 179.251 78.4809C179.118 78.5223 178.984 78.543 178.848 78.543C178.507 78.543 178.205 78.438 177.94 78.228C177.675 78.018 177.45 77.7341 177.267 77.3758C177.085 77.0175 176.946 76.5989 176.851 76.1195C176.756 75.6398 176.708 75.1284 176.708 74.5836C176.708 74.0153 176.76 73.4814 176.864 72.9809C176.968 72.4803 177.116 72.0472 177.307 71.6799C177.499 71.3126 177.729 71.0226 177.995 70.8097C178.262 70.5965 178.559 70.49 178.885 70.49C179.201 70.49 179.477 70.5983 179.713 70.814C179.95 71.0301 180.139 71.3333 180.283 71.7241H180.304V66.1036H179.444V65.3931H181.272V77.5839H181.272ZM177.773 74.5299C177.773 75.2047 177.802 75.7565 177.86 76.1859C177.917 76.6154 177.998 76.9525 178.102 77.1978C178.206 77.4436 178.33 77.6122 178.475 77.704C178.62 77.7958 178.779 77.8415 178.951 77.8415C179.223 77.8415 179.447 77.744 179.621 77.5486C179.794 77.3532 179.932 77.0956 180.034 76.7759C180.137 76.4562 180.207 76.0937 180.246 75.6883C180.286 75.2829 180.306 74.8699 180.306 74.4494C180.306 73.8458 180.273 73.3349 180.206 72.9178C180.14 72.5006 180.048 72.1644 179.929 71.9101C179.811 71.6559 179.67 71.4722 179.508 71.3597C179.344 71.2476 179.166 71.1912 178.973 71.1912C178.801 71.1912 178.641 71.2354 178.494 71.3244C178.347 71.4129 178.22 71.5805 178.112 71.8259C178.005 72.0716 177.922 72.4107 177.862 72.8424C177.803 73.2751 177.773 73.8369 177.773 74.5299Z" fill="#064F94"/>
<path d="M187.351 78.2946C187.201 78.3422 187.061 78.3714 186.932 78.3831C186.803 78.3949 186.701 78.401 186.626 78.401C186.436 78.401 186.279 78.3761 186.155 78.3257C186.032 78.2758 185.934 78.2028 185.863 78.1082C185.791 78.0135 185.739 77.8982 185.707 77.7621C185.675 77.626 185.655 77.4749 185.648 77.3091H185.621C185.52 77.5398 185.413 77.7352 185.298 77.8953C185.183 78.055 185.063 78.1826 184.937 78.2772C184.812 78.3718 184.684 78.4401 184.554 78.4815C184.423 78.523 184.291 78.5437 184.158 78.5437C183.94 78.5437 183.744 78.4947 183.572 78.3973C183.4 78.2998 183.255 78.1618 183.137 77.9843C183.019 77.8068 182.929 77.5954 182.868 77.3496C182.807 77.1043 182.777 76.8331 182.777 76.5369C182.777 75.7144 183.022 75.0881 183.511 74.6592C184 74.2302 184.705 74.0009 185.626 73.9713C185.629 73.7048 185.632 73.4651 185.634 73.2518C185.636 73.039 185.637 72.829 185.637 72.6213C185.637 72.0827 185.57 71.7055 185.435 71.4894C185.301 71.2738 185.089 71.1654 184.798 71.1654C184.605 71.1654 184.432 71.2008 184.279 71.2719C184.127 71.343 184.002 71.4376 183.906 71.5563C183.992 71.6928 184.055 71.8359 184.096 71.9871C184.138 72.1382 184.158 72.2875 184.158 72.4353C184.158 72.684 184.11 72.8911 184.013 73.0569C183.916 73.2226 183.784 73.3055 183.615 73.3055C183.544 73.3055 183.473 73.2876 183.406 73.2523C183.337 73.217 183.278 73.1609 183.228 73.0837C183.178 73.0065 183.138 72.9104 183.107 72.7951C183.077 72.6792 183.061 72.545 183.061 72.3911C183.061 72.1486 183.101 71.9132 183.182 71.6853C183.263 71.4574 183.383 71.2544 183.543 71.0769C183.702 70.8994 183.901 70.7572 184.14 70.6508C184.378 70.5439 184.657 70.4907 184.975 70.4907C185.233 70.4907 185.461 70.5321 185.661 70.615C185.859 70.6979 186.027 70.8359 186.166 71.028C186.303 71.2205 186.408 71.4762 186.477 71.7959C186.547 72.1156 186.582 72.5121 186.582 72.9858C186.582 73.1039 186.582 73.2979 186.58 73.5673C186.578 73.8366 186.575 74.1342 186.571 74.4595C186.567 74.7849 186.565 75.1154 186.563 75.4497C186.561 75.784 186.56 76.0788 186.56 76.333C186.56 76.5934 186.564 76.811 186.571 76.9857C186.578 77.1603 186.596 77.2997 186.624 77.4033C186.653 77.5069 186.696 77.5808 186.753 77.6251C186.81 77.6693 186.891 77.6919 186.995 77.6919C187.084 77.6919 187.203 77.674 187.35 77.6387V78.2946H187.351ZM185.626 74.6366C185.235 74.6545 184.92 74.7034 184.68 74.7835C184.44 74.8631 184.254 74.976 184.121 75.1206C183.988 75.2656 183.898 75.4417 183.852 75.6489C183.805 75.8561 183.782 76.0929 183.782 76.3594C183.782 76.8209 183.841 77.166 183.957 77.3939C184.073 77.6218 184.234 77.7357 184.438 77.7357C184.549 77.7357 184.674 77.6971 184.812 77.6204C184.95 77.5436 185.079 77.4174 185.201 77.2427C185.323 77.0681 185.424 76.8387 185.505 76.5548C185.586 76.2709 185.626 75.9187 185.626 75.4982V74.6366Z" fill="#064F94"/>
<path d="M191.308 76.5187C191.211 77.2113 191.052 77.7217 190.829 78.0504C190.607 78.3791 190.301 78.5429 189.91 78.5429C189.706 78.5429 189.523 78.5015 189.359 78.4186C189.196 78.3357 189.057 78.2039 188.943 78.0236C188.828 77.8432 188.74 77.612 188.679 77.3309C188.618 77.0498 188.588 76.708 188.588 76.3054V71.4396H187.782V70.7291H188.588V69.0067L189.556 68.7402V70.7291H190.953V71.4396H189.556V76.5008C189.556 76.7438 189.569 76.942 189.596 77.0955C189.623 77.2495 189.662 77.3705 189.712 77.4595C189.762 77.548 189.82 77.6087 189.889 77.6412C189.957 77.6737 190.034 77.6902 190.12 77.6902C190.235 77.6902 190.333 77.6619 190.416 77.6059C190.498 77.5499 190.57 77.4637 190.634 77.3484C190.696 77.233 190.75 77.0894 190.795 76.9175C190.84 76.7457 190.882 76.5474 190.921 76.3224C190.99 76.3403 191.055 76.3638 191.12 76.3935C191.184 76.4241 191.247 76.465 191.308 76.5187Z" fill="#064F94"/>
<path d="M193.566 77.5838H194.372V78.2943H191.792V77.5838H192.598V71.4396H191.792V70.7291H193.566V77.5838H193.566ZM193.081 68.2251C192.989 68.2251 192.903 68.2002 192.826 68.1498C192.749 68.0999 192.681 68.0269 192.622 67.9323C192.563 67.8376 192.517 67.7265 192.485 67.5989C192.453 67.4718 192.436 67.3282 192.436 67.1681C192.436 67.0141 192.453 66.8724 192.487 66.742C192.521 66.6115 192.567 66.499 192.624 66.4044C192.681 66.3097 192.75 66.2358 192.829 66.1821C192.907 66.1289 192.992 66.1025 193.081 66.1025C193.17 66.1025 193.255 66.128 193.334 66.1779C193.412 66.2283 193.481 66.3008 193.54 66.3954C193.6 66.4905 193.645 66.6012 193.677 66.7288C193.709 66.8564 193.726 66.9995 193.726 67.1596C193.726 67.3197 193.709 67.4642 193.675 67.5947C193.641 67.7251 193.596 67.8362 193.538 67.9276C193.481 68.0194 193.412 68.0919 193.334 68.1451C193.256 68.1988 193.171 68.2251 193.081 68.2251Z" fill="#064F94"/>
<path d="M195.097 74.5833C195.097 74.0268 195.15 73.4999 195.256 73.0027C195.361 72.5055 195.516 72.0704 195.721 71.6975C195.925 71.3246 196.175 71.0303 196.47 70.8142C196.766 70.5985 197.102 70.4902 197.478 70.4902C197.851 70.4902 198.181 70.5957 198.468 70.8057C198.754 71.0157 198.995 71.3015 199.188 71.6622C199.381 72.0233 199.528 72.4438 199.626 72.9231C199.725 73.4025 199.774 73.9119 199.774 74.4501C199.774 75.0066 199.721 75.5335 199.615 76.0307C199.509 76.528 199.354 76.963 199.15 77.336C198.947 77.7089 198.696 78.0032 198.4 78.2193C198.105 78.4349 197.768 78.5432 197.392 78.5432C197.02 78.5432 196.69 78.4382 196.403 78.2282C196.117 78.0182 195.877 77.7324 195.683 77.3713C195.49 77.0101 195.343 76.5901 195.245 76.1103C195.146 75.631 195.097 75.122 195.097 74.5833ZM196.161 74.5476C196.161 75.1931 196.188 75.7285 196.242 76.1546C196.295 76.5807 196.374 76.9211 196.478 77.1759C196.582 77.4306 196.713 77.6095 196.871 77.7131C197.028 77.8167 197.213 77.8685 197.424 77.8685C197.632 77.8685 197.817 77.8153 197.978 77.7089C198.14 77.6025 198.274 77.4202 198.381 77.1627C198.488 76.9051 198.57 76.559 198.626 76.1235C198.681 75.6884 198.709 75.1427 198.709 74.4854C198.709 73.8403 198.682 73.3045 198.629 72.8779C198.575 72.4518 198.496 72.1114 198.392 71.8571C198.288 71.6029 198.156 71.4235 197.997 71.3199C197.837 71.2163 197.654 71.1645 197.446 71.1645C197.235 71.1645 197.049 71.2177 196.889 71.3241C196.73 71.4305 196.597 71.6127 196.489 71.8703C196.381 72.1279 196.3 72.4739 196.244 72.9095C196.189 73.3445 196.161 73.8907 196.161 74.5476Z" fill="#064F94"/>
<path d="M202.3 77.5841H203.026V78.2946H200.526V77.5841H201.332V71.4399H200.526V70.7294H202.3V72.0167H202.321C202.469 71.5256 202.665 71.148 202.913 70.8848C203.16 70.6216 203.479 70.4897 203.869 70.4897C204.361 70.4897 204.725 70.6983 204.966 71.116C205.206 71.5332 205.326 72.1297 205.326 72.9052V77.5845H206.106V78.2951H203.633V77.5845H204.359V72.6566C204.359 72.1891 204.292 71.8439 204.16 71.6221C204.027 71.3999 203.841 71.2888 203.6 71.2888C203.417 71.2888 203.247 71.3523 203.09 71.4799C202.932 71.6075 202.795 71.8039 202.679 72.0704C202.562 72.3369 202.47 72.6773 202.402 73.0912C202.334 73.5056 202.3 73.9971 202.3 74.565V77.5841H202.3Z" fill="#064F94"/>
</svg>
